<?xml version="1.0" standalone="no"?>
<!DOCTYPE svg PUBLIC "-//W3C//DTD SVG 20010904//EN"
 "http://www.w3.org/TR/2001/REC-SVG-20010904/DTD/svg10.dtd">
<svg version="1.0" xmlns="http://www.w3.org/2000/svg"
 width="400px" height="600px" viewBox="0 0 618.000000 760.000000"
 preserveAspectRatio="xMidYMid meet">
 <style type="text/css">

	margin: 0 auto;

	 </style>
<metadata>
Created by potrace 1.16, written by Peter Selinger 2001-2019
</metadata>
<g transform="translate(0.000000,760.000000) scale(0.100000,-0.100000)"
fill="rgb(245,0,182)" stroke="none">
<path style="fill: rgb(245,0,182);" d="M3060 7570 c0 -18 -7 -19 -164 -18 -123 1 -168 -2 -180 -11 -12 -10
-36 -12 -83 -8 -43 3 -83 0 -112 -9 -25 -8 -73 -16 -106 -20 -73 -7 -488 12
-531 25 -17 5 -37 5 -46 0 -9 -5 -35 -2 -67 9 l-52 16 -48 -54 c-31 -36 -52
-52 -63 -48 -8 4 -53 0 -99 -9 -82 -14 -161 -13 -207 2 -19 6 -29 0 -60 -32
-20 -22 -48 -44 -62 -48 -48 -15 -97 -53 -174 -136 -42 -46 -90 -89 -107 -96
-37 -15 -36 -46 1 -51 38 -5 43 -17 26 -50 -18 -35 -21 -72 -6 -72 13 0 43 62
65 137 10 35 27 71 38 80 20 17 20 17 13 -2 -5 -11 -16 -43 -26 -71 -10 -28
-25 -65 -34 -82 -21 -40 -20 -52 2 -52 25 0 42 19 42 48 0 32 85 207 108 224
11 7 22 23 26 35 4 13 28 37 52 54 l46 31 -25 -38 c-13 -22 -50 -76 -81 -122
-64 -95 -110 -182 -137 -261 -20 -56 -25 -101 -11 -101 21 1 36 23 43 71 5 29
13 55 19 59 5 3 16 27 24 52 21 72 163 263 229 309 20 15 8 -3 -35 -49 -67
-71 -116 -148 -103 -160 4 -4 41 29 82 73 41 44 68 70 61 58 -10 -18 -10 -25
1 -35 10 -11 16 -8 29 12 43 63 95 121 120 134 l29 15 -29 -80 c-33 -95 -35
-144 -8 -231 15 -49 77 -165 105 -196 2 -2 45 -10 96 -18 52 -9 108 -22 126
-31 28 -13 31 -18 22 -35 -14 -26 -61 -48 -67 -30 -5 17 -37 15 -110 -8 -35
-11 -76 -20 -92 -20 -15 0 -51 -16 -80 -35 -29 -19 -56 -35 -61 -35 -5 0 -9
-5 -9 -11 0 -13 48 -6 180 26 52 13 114 26 137 30 39 6 41 5 36 -15 -10 -36
-110 -137 -154 -154 -22 -9 -77 -51 -123 -94 l-83 -79 -139 -6 c-113 -6 -151
-4 -199 9 -112 30 -136 34 -161 28 -19 -5 -22 -9 -13 -20 6 -8 26 -14 43 -15
17 -1 42 -5 56 -9 18 -6 7 -8 -42 -9 -65 -1 -94 -15 -67 -32 7 -4 79 -5 160
-2 99 4 148 3 153 -5 4 -7 -15 -15 -51 -22 -52 -11 -101 -10 -194 6 -43 7 -60
-10 -28 -27 28 -15 191 -29 203 -17 6 4 19 8 30 8 13 0 -1 -11 -33 -26 -45
-22 -57 -24 -76 -14 -19 10 -38 4 -143 -43 -66 -30 -136 -60 -156 -67 -26 -8
-36 -17 -36 -32 0 -18 5 -20 39 -15 22 3 79 27 128 55 48 27 102 53 118 56 30
6 30 6 -14 -34 -24 -22 -72 -55 -105 -73 -34 -18 -62 -40 -64 -49 -4 -23 25
-24 50 -1 17 15 18 15 18 -5 0 -12 4 -22 9 -22 5 0 40 32 77 70 64 67 123 109
172 124 l22 7 -20 -53 c-12 -29 -38 -77 -58 -106 -20 -30 -52 -77 -69 -105
-18 -29 -53 -75 -78 -104 -57 -65 -88 -117 -83 -140 6 -26 71 43 125 132 46
76 81 120 88 113 10 -10 -88 -178 -124 -212 -32 -31 -42 -76 -17 -76 8 0 24
14 36 30 12 17 27 30 33 31 7 0 24 23 38 52 14 29 45 88 70 132 l44 80 3 -36
c2 -20 -7 -77 -19 -125 -14 -56 -22 -118 -22 -167 1 -75 -1 -79 -28 -100 -20
-14 -27 -27 -23 -39 3 -10 -6 -37 -21 -63 -23 -38 -24 -46 -12 -51 31 -12 57
19 112 133 54 113 80 204 69 241 -3 9 8 2 24 -16 44 -49 56 -105 49 -227 -3
-72 -2 -103 6 -98 6 4 8 -2 4 -18 -4 -13 -10 -49 -14 -79 -6 -49 -5 -54 9 -42
18 14 33 72 44 167 l7 60 14 -80 c11 -61 11 -84 2 -101 -8 -17 -8 -30 1 -58 9
-27 9 -53 1 -105 -6 -39 -11 -118 -11 -178 0 -166 -58 -397 -118 -473 -18 -22
-57 -49 -105 -72 -76 -37 -89 -52 -64 -77 36 -38 -100 48 -173 109 -47 40
-105 82 -130 95 -56 30 -333 324 -453 483 -5 6 -7 12 -4 12 8 0 109 -103 150
-153 75 -92 334 -327 361 -327 9 0 16 4 16 8 0 14 -23 32 -42 32 -10 0 -18 5
-18 12 0 7 -19 31 -42 55 -32 32 -36 41 -20 36 14 -3 22 -1 22 7 0 6 -71 82
-159 168 -137 136 -195 202 -177 202 3 0 32 -34 66 -75 55 -67 114 -115 126
-102 6 6 -54 80 -144 181 -70 78 -123 164 -136 221 -6 25 1 19 40 -34 25 -35
71 -101 101 -147 30 -46 58 -84 62 -84 5 0 65 -54 135 -119 131 -124 209 -185
310 -241 54 -31 68 -34 157 -37 104 -4 122 5 70 32 -16 8 -56 39 -88 68 -76
70 -113 97 -129 97 -36 0 -2 -46 76 -103 16 -12 11 -10 -15 4 -22 12 -51 33
-64 48 -14 14 -29 25 -34 23 -5 -1 -26 13 -48 33 -61 55 -77 46 -33 -18 l26
-38 -29 15 c-15 8 -59 45 -98 82 -38 36 -56 57 -40 46 17 -11 43 -34 59 -51
33 -35 46 -39 46 -15 0 9 -61 75 -136 147 -159 153 -172 163 -186 149 -8 -8
-22 3 -47 39 -20 27 -62 85 -93 128 -32 43 -69 104 -84 137 -33 75 -24 65 69
-76 79 -121 157 -213 164 -193 6 16 -73 170 -200 388 -148 253 -227 439 -200
466 7 7 16 -14 28 -63 11 -44 29 -87 46 -108 15 -19 46 -74 70 -122 38 -80 99
-159 99 -129 0 15 -31 76 -81 157 -44 72 -48 85 -19 59 40 -36 32 -4 -23 87
-30 51 -58 104 -62 118 -4 14 13 -8 37 -49 56 -96 62 -68 9 47 -47 102 -50
135 -17 210 l23 54 6 -109 c9 -160 74 -381 167 -563 23 -45 55 -53 83 -22 25
27 21 42 -12 42 -32 0 -43 11 -60 59 -11 34 -11 34 9 16 12 -11 26 -15 37 -11
17 7 17 8 0 17 -23 13 -54 76 -61 124 -4 29 -4 33 3 15 21 -63 82 -143 97
-128 3 4 -13 39 -35 80 -22 40 -45 96 -51 123 -5 28 -13 61 -15 75 -5 22 -4
21 14 -7 22 -35 46 -45 37 -15 -16 51 -36 158 -46 247 -15 121 -6 234 21 287
11 22 17 47 14 57 -3 9 5 37 17 62 l23 44 5 -165 c5 -157 15 -209 40 -225 8
-5 9 12 3 66 -4 41 -8 137 -8 214 0 77 -3 143 -8 146 -9 6 35 113 50 122 5 3
2 -35 -8 -86 -39 -202 -37 -345 6 -395 13 -15 25 -25 28 -22 2 3 -2 41 -10 85
-28 153 -4 366 47 427 l20 23 -19 -45 c-24 -57 -40 -322 -21 -346 25 -29 30
-11 30 99 1 81 3 107 11 95 19 -33 29 -18 29 45 0 61 14 132 28 141 4 2 7 -19
7 -47 0 -71 21 -72 30 -2 6 48 9 54 22 44 19 -16 30 0 40 55 4 29 18 50 52 82
35 32 43 46 34 55 -8 8 -30 2 -90 -24 -43 -19 -95 -40 -115 -45 -21 -6 -57
-26 -80 -45 -24 -19 -58 -42 -76 -51 -17 -9 -32 -24 -32 -33 0 -8 -5 -33 -11
-54 -11 -36 -16 -39 -83 -59 -100 -31 -146 -56 -146 -81 0 -11 -16 -59 -35
-106 -33 -77 -36 -95 -38 -192 -2 -113 1 -105 -80 -254 -60 -111 -52 -193 43
-427 29 -72 55 -155 61 -195 6 -38 19 -126 30 -195 11 -69 21 -136 23 -149 2
-14 0 -73 -6 -131 -8 -93 -7 -122 11 -221 12 -62 21 -127 21 -144 0 -17 6 -39
13 -50 8 -11 20 -48 27 -83 18 -90 63 -171 171 -313 114 -149 133 -179 159
-255 20 -56 17 -73 -12 -74 -17 0 -6 -24 31 -66 47 -54 102 -159 166 -314 65
-160 107 -237 164 -297 27 -29 52 -66 56 -82 3 -16 33 -70 67 -120 69 -104
198 -377 198 -419 0 -17 9 -37 21 -48 35 -31 51 -71 39 -94 -8 -16 -4 -28 24
-64 60 -79 71 -129 71 -316 l0 -165 -57 -116 c-32 -64 -65 -145 -75 -181 -10
-36 -30 -80 -45 -99 -16 -18 -28 -39 -28 -46 0 -8 -16 -55 -36 -106 -19 -51
-42 -117 -49 -147 -8 -30 -28 -93 -45 -140 -57 -154 -73 -260 -73 -485 -1
-146 4 -226 16 -295 23 -123 23 -123 49 -135 13 -6 38 -32 55 -60 35 -52 58
-67 92 -58 22 6 27 18 11 28 -5 3 -10 11 -10 17 0 7 12 0 28 -14 15 -14 43
-28 62 -30 19 -3 56 -13 82 -23 39 -16 51 -17 74 -6 l27 12 -21 15 c-24 17
-30 64 -9 64 7 0 36 -7 63 -15 136 -40 254 -65 370 -80 122 -16 129 -16 141 1
20 27 16 34 -16 34 -34 0 -50 17 -26 26 8 4 37 -2 63 -13 30 -13 61 -18 85
-15 31 3 41 0 53 -17 18 -25 42 -27 58 -5 11 14 19 14 86 0 110 -22 217 -29
314 -21 l86 7 0 33 c0 31 2 33 46 39 80 11 80 10 76 -30 -4 -31 -2 -35 14 -32
10 2 25 17 33 33 8 17 20 34 28 38 17 11 17 26 -3 48 -14 16 -14 18 3 27 18
10 47 15 71 13 22 -2 13 -36 -23 -87 -45 -63 -46 -84 -2 -84 30 0 34 4 45 43
10 33 23 49 55 69 23 15 64 41 91 58 l49 32 -7 -25 c-3 -14 -9 -33 -13 -43 -5
-15 -2 -16 26 -11 18 4 44 16 59 27 18 15 34 19 53 15 21 -5 30 -2 38 13 9 18
19 19 93 15 50 -2 89 0 98 6 27 20 -9 31 -93 29 -90 -2 -107 8 -82 46 24 37
75 37 75 1 0 -29 20 -34 27 -6 4 14 16 20 49 23 25 2 43 -1 43 -7 -3 -25 2
-33 20 -28 31 8 48 33 66 97 9 32 25 66 35 76 10 10 24 44 30 75 7 32 23 77
35 102 13 24 33 81 45 126 12 45 34 113 49 152 46 116 92 256 105 325 8 36 26
110 41 165 20 75 28 131 32 225 3 97 9 134 24 167 18 39 19 45 5 71 -14 28
-14 30 8 42 18 9 29 9 44 1 12 -6 76 -11 156 -11 127 0 136 -1 163 -24 16 -13
35 -36 42 -50 8 -13 20 -27 27 -30 7 -3 90 15 186 40 275 71 426 71 532 -1 21
-14 51 -25 70 -25 18 0 47 -5 64 -11 26 -9 31 -16 34 -47 2 -31 9 -40 38 -55
32 -17 50 -18 195 -11 178 8 217 9 290 4 81 -5 139 18 177 70 30 41 33 50 30
108 -1 34 5 102 15 150 25 130 21 297 -11 457 -25 126 -27 131 -69 172 -41 42
-46 44 -112 47 -115 6 -122 10 -140 73 -9 31 -15 70 -14 87 2 17 -2 40 -8 51
-16 30 -58 173 -98 334 -26 106 -34 155 -30 186 5 33 0 58 -24 121 -17 43 -31
89 -31 102 0 12 -9 40 -20 61 -10 21 -29 77 -41 124 -11 47 -30 100 -41 118
-12 19 -22 50 -23 69 -3 55 -35 191 -56 234 -11 22 -19 47 -19 55 0 17 -37
134 -51 163 -5 10 -9 28 -9 41 0 13 -19 59 -41 102 -23 43 -59 133 -81 199
-23 71 -61 160 -92 216 -30 52 -57 110 -61 127 -3 18 -16 39 -27 47 -13 9 -18
21 -15 30 4 11 1 16 -11 16 -12 0 -30 25 -56 78 -21 42 -71 133 -111 202 -90
155 -125 224 -125 247 0 10 -9 33 -20 51 -16 26 -18 37 -10 47 9 11 5 14 -17
17 -23 3 -39 21 -103 125 -78 127 -125 184 -172 209 -15 8 -30 25 -34 38 -3
14 -14 32 -25 42 -10 9 -19 22 -19 28 0 6 -20 24 -44 41 -25 16 -86 76 -136
133 -51 57 -112 118 -137 135 -76 53 -167 147 -154 160 18 18 13 35 -31 132
-39 84 -47 95 -92 120 -27 15 -66 43 -87 62 l-38 34 -40 -20 c-41 -22 -81 -28
-81 -13 0 5 11 14 25 20 32 15 33 56 5 112 -31 61 -4 48 31 -15 40 -72 49 -76
49 -22 0 79 -68 150 -158 163 -48 7 -62 19 -92 77 -20 41 -150 108 -219 115
-29 2 -49 7 -46 10 6 6 -14 32 -26 32 -5 0 -9 -9 -9 -20z m-120 -80 c-6 -12
-43 -56 -82 -98 -90 -99 -130 -172 -93 -172 16 0 75 75 75 96 0 12 154 174
165 174 17 0 -3 -29 -60 -90 -56 -60 -82 -110 -57 -110 4 0 47 42 96 92 49 51
75 76 57 54 -37 -43 -68 -103 -59 -112 13 -12 49 19 85 73 21 31 48 63 61 71
32 21 28 -1 -8 -38 -16 -17 -30 -35 -30 -40 0 -22 29 -8 63 30 38 43 52 49 61
25 3 -9 18 -15 40 -15 32 0 38 -6 89 -82 74 -111 94 -154 81 -175 -6 -9 -15
-18 -20 -20 -22 -7 -91 57 -124 115 -33 59 -37 62 -70 60 -23 -2 -35 -8 -35
-18 0 -9 7 -14 17 -12 9 1 22 -7 29 -20 6 -13 36 -56 65 -97 30 -40 51 -77 48
-82 -3 -5 -19 -16 -36 -25 l-31 -16 -83 88 c-82 87 -84 88 -84 57 0 -43 103
-163 140 -163 14 0 32 -5 40 -10 13 -9 13 -11 0 -20 -8 -6 -24 -8 -35 -5 -11
4 -48 9 -82 12 -60 5 -63 7 -109 61 l-48 55 -18 -23 c-29 -36 -23 -87 18 -147
20 -29 42 -70 49 -90 11 -32 18 -38 38 -35 16 1 27 -4 31 -14 9 -25 2 -27 -41
-14 -80 26 -175 83 -211 129 -78 96 -56 89 -295 93 -191 3 -217 6 -259 25 -77
35 -142 83 -129 96 19 19 13 39 -11 35 -14 -2 -25 -14 -31 -33 -6 -16 -15 -34
-21 -38 -6 -4 -53 -5 -103 -2 -96 6 -120 -3 -68 -27 29 -13 24 -28 -10 -28
-13 0 -30 -3 -39 -6 -19 -7 -21 -34 -3 -35 6 0 2 -5 -10 -11 -13 -6 -23 -15
-23 -21 0 -13 92 -2 127 16 15 8 39 18 53 22 43 13 5 -21 -62 -57 -33 -17 -72
-48 -86 -67 -14 -20 -29 -40 -33 -44 -3 -5 -43 10 -87 32 -125 63 -194 161
-200 286 -5 88 12 130 98 243 53 71 65 82 84 75 27 -9 64 -11 326 -22 118 -4
216 -9 217 -10 1 0 -5 -14 -15 -30 -16 -28 -15 -31 2 -50 30 -33 59 -27 84 18
12 21 29 41 37 45 23 9 18 -8 -11 -35 -26 -24 -59 -87 -51 -96 10 -9 45 21 75
66 30 43 72 81 72 63 0 -4 -29 -48 -65 -96 -36 -49 -63 -91 -61 -94 3 -2 16
-2 29 2 23 5 40 26 107 134 35 57 93 100 83 61 -3 -11 -32 -49 -64 -85 -46
-50 -59 -71 -59 -96 l0 -32 31 30 c16 16 56 67 89 114 54 79 95 119 107 106 9
-9 -26 -56 -42 -56 -8 0 -21 -15 -29 -33 -7 -19 -30 -55 -49 -80 -37 -48 -53
-84 -43 -94 10 -10 42 25 97 106 58 84 104 137 134 153 24 13 23 12 -63 -90
-50 -61 -92 -129 -92 -152 0 -5 6 -10 14 -10 18 0 58 49 50 62 -6 10 138 173
168 189 17 9 18 8 6 -11 -7 -11 -21 -23 -31 -26 -9 -3 -26 -22 -36 -42 -11
-20 -40 -61 -65 -91 -54 -62 -72 -91 -56 -91 18 0 101 82 146 146 40 55 125
144 139 144 3 0 1 -9 -5 -20z m-715 -430 c3 -5 0 -10 -7 -10 -29 -1 23 -19
167 -60 83 -23 191 -61 240 -84 50 -24 112 -51 138 -61 27 -9 61 -28 75 -41
21 -19 3 -13 -87 26 -159 70 -287 117 -383 140 -70 17 -103 19 -87 7 16 -13
122 -50 219 -77 110 -31 184 -62 260 -109 l35 -22 -30 7 c-16 4 -50 13 -75 20
-49 15 -60 11 -44 -14 8 -12 30 -19 70 -23 63 -6 127 -34 158 -68 24 -27 19
-26 -57 4 -34 14 -80 28 -102 31 l-40 6 25 -20 c13 -11 61 -32 105 -46 45 -14
90 -32 100 -40 17 -12 59 -144 50 -154 -2 -2 -11 9 -22 23 -38 55 -59 74 -85
81 -37 8 -39 -21 -4 -38 l25 -11 -31 -21 c-48 -32 -74 -96 -97 -243 -25 -160
-43 -203 -83 -203 -24 0 -28 4 -28 28 0 29 -17 50 -57 71 -19 10 -26 7 -47
-16 -32 -34 -46 -22 -22 18 14 23 15 34 7 42 -18 18 -44 -4 -58 -49 l-13 -39
3 40 c2 39 1 40 -31 38 -46 -2 -48 -7 -18 -43 38 -45 34 -60 -14 -60 -84 0
-165 -60 -235 -174 -36 -58 -43 -65 -72 -66 -26 0 -34 -5 -39 -24 -7 -31 1
-44 33 -57 13 -5 22 -13 19 -17 -2 -4 -1 -14 3 -21 6 -10 37 6 121 63 63 41
117 73 122 70 5 -3 -1 -23 -14 -45 -23 -41 -18 -60 11 -42 16 10 17 8 13 -15
-4 -19 -1 -24 10 -20 11 5 13 -1 10 -23 -6 -40 15 -37 35 6 9 19 20 35 25 35
13 0 9 -17 -12 -52 -24 -39 -25 -58 -5 -58 8 0 26 23 40 50 14 28 28 50 31 50
3 0 2 -16 -2 -35 -7 -38 -3 -40 56 -29 23 5 36 15 45 38 9 19 10 35 4 41 -14
14 -11 22 14 30 17 6 7 10 -46 21 -73 14 -178 61 -184 81 -6 16 44 28 60 14 8
-6 29 -8 50 -4 28 4 49 -1 90 -21 l53 -27 11 -82 c9 -66 15 -85 36 -102 22
-19 23 -23 8 -32 -13 -9 -14 -13 -3 -24 10 -11 16 -11 32 -1 11 6 25 12 32 12
27 0 -71 -39 -167 -67 -75 -21 -120 -28 -179 -27 l-80 1 25 -19 c36 -30 187
-22 252 12 36 19 49 22 58 13 9 -9 6 -20 -15 -48 -24 -32 -29 -34 -40 -20 -9
13 -17 14 -44 4 -56 -19 -223 -6 -320 26 -46 14 -86 24 -88 22 -10 -10 52 -48
105 -64 40 -13 92 -18 183 -18 69 0 124 -3 121 -7 -2 -5 -13 -8 -23 -8 -10 0
-31 -5 -47 -11 -30 -13 -126 -14 -144 -3 -7 4 -43 13 -81 20 -39 7 -118 36
-177 63 -58 27 -117 52 -130 56 -13 4 -35 21 -49 37 -29 35 -82 65 -82 46 0
-23 93 -98 179 -142 100 -52 217 -88 344 -106 89 -14 96 -23 25 -35 -41 -7
-268 32 -268 47 0 4 -21 19 -47 32 -27 13 -53 33 -60 44 -6 11 -24 23 -40 27
-38 9 -77 40 -216 173 -65 62 -130 120 -144 129 -35 23 -61 81 -73 160 -12 81
-12 245 0 196 4 -17 23 -45 43 -63 20 -17 58 -64 84 -103 53 -79 110 -147 125
-147 18 0 -4 45 -57 115 -29 39 -58 81 -65 95 -13 24 -13 24 11 9 13 -9 47
-47 76 -85 28 -38 59 -71 69 -72 30 -7 7 48 -47 110 -54 62 -60 75 -28 57 29
-15 45 1 30 30 -22 40 7 21 44 -29 49 -66 105 -110 105 -82 0 5 -30 47 -67 93
-42 53 -72 83 -82 81 -27 -6 -105 -20 -125 -24 -46 -8 -86 103 -62 173 8 23
12 48 9 56 -3 8 9 34 26 58 17 24 31 50 31 59 0 30 43 8 65 -34 14 -28 14 -29
-15 -35 -38 -8 -57 -44 -66 -119 l-7 -56 37 0 c39 0 48 18 21 40 -15 13 -20
42 -9 53 4 3 15 2 25 -4 16 -8 19 -5 25 31 4 23 11 37 17 33 5 -3 16 2 22 11
12 15 19 10 71 -44 57 -60 139 -118 150 -107 11 11 -14 41 -77 91 -59 48 -95
93 -83 105 2 3 26 -16 52 -42 26 -26 51 -47 55 -47 20 0 2 39 -30 67 -21 17
-35 34 -31 38 4 4 24 -7 44 -24 42 -38 81 -57 91 -47 12 12 -12 40 -57 66 -40
24 -52 41 -33 47 5 2 24 -10 43 -27 18 -16 42 -30 52 -30 39 0 8 41 -50 65
-41 18 -36 29 15 30 47 0 52 17 11 34 -26 11 -29 15 -15 18 10 3 32 0 49 -6
38 -14 78 -14 78 -1 0 17 -37 30 -85 30 -43 0 -45 1 -34 21 8 15 17 19 32 15
63 -17 97 -18 97 -3 0 19 -21 27 -76 27 -42 0 -56 11 -33 26 6 3 38 1 70 -6
64 -14 79 -10 59 15 -9 10 -31 15 -71 15 -61 0 -75 11 -38 31 24 13 79 5 123
-18 21 -11 31 -12 34 -4 4 12 42 15 42 3 0 -4 -18 -25 -40 -47 -37 -36 -39
-40 -24 -56 9 -10 19 -39 22 -64 l5 -46 21 19 c34 32 97 59 68 30 -7 -7 -12
-22 -12 -35 0 -20 -2 -22 -20 -11 -22 14 -25 12 -34 -24 -5 -23 0 -32 36 -61
24 -19 68 -49 98 -67 30 -17 44 -29 30 -25 -14 4 -38 9 -55 12 -27 5 -29 4
-14 -11 8 -9 43 -21 77 -27 34 -6 62 -15 62 -20 0 -5 -12 -6 -27 -2 -40 10
-77 10 -83 -2 -8 -15 49 -22 100 -12 86 15 90 17 90 35 0 10 14 28 30 40 17
13 30 27 30 32 0 5 -14 25 -31 45 -18 20 -29 38 -27 41 9 9 37 -8 43 -26 8
-25 54 -42 106 -38 35 2 44 7 43 21 -1 9 4 17 12 17 8 0 14 4 14 9 0 15 -50
84 -95 131 -23 25 -48 55 -54 67 -11 23 -141 93 -171 93 -10 0 -23 6 -29 14
-36 43 -212 80 -316 66 -62 -8 -42 -14 96 -28 91 -10 188 -39 162 -49 -7 -3
-70 3 -140 12 -209 26 -188 18 -188 73 l0 47 52 3 c41 2 82 -7 187 -42 191
-65 228 -60 71 8 -87 38 -79 44 30 21 82 -17 95 -18 95 -6 0 12 -75 36 -180
56 -93 19 -144 40 -134 56 4 8 9 7 14 -1 12 -20 43 -3 37 20 -4 15 0 20 14 20
12 0 16 5 13 15 -7 17 31 22 41 5z m1270 -179 c16 -108 40 -201 62 -245 l25
-50 -20 -17 c-12 -9 -38 -20 -58 -23 -20 -4 -85 -27 -146 -52 -119 -49 -234
-69 -242 -43 -2 8 -20 66 -40 130 -20 64 -36 119 -36 123 0 13 105 57 217 91
163 49 213 67 213 78 0 13 -67 2 -173 -29 -48 -14 -93 -24 -100 -21 -21 7 52
44 111 56 31 7 67 17 79 24 12 7 40 13 62 13 39 1 41 0 46 -35z m175 17 c0
-13 44 -38 67 -38 7 0 13 6 13 13 1 6 10 -5 21 -26 24 -47 16 -63 -13 -24 -21
29 -48 36 -48 12 0 -8 23 -31 50 -51 28 -20 48 -39 45 -42 -3 -3 -18 4 -33 16
-48 39 -91 57 -104 44 -8 -8 1 -17 35 -33 39 -19 44 -24 31 -34 -14 -9 -10
-16 25 -48 23 -20 46 -37 51 -37 16 0 12 21 -7 43 -18 19 -17 20 7 7 14 -7 38
-22 55 -34 29 -20 29 -20 7 -26 -22 -5 -20 -8 29 -58 34 -35 57 -51 68 -47 11
3 31 -9 56 -35 29 -30 35 -40 22 -40 -31 0 -80 31 -145 91 -37 33 -84 65 -110
75 -26 10 -58 28 -73 41 -14 12 -33 23 -42 23 -32 0 -17 -28 32 -64 44 -31 83
-76 66 -76 -3 0 -23 9 -45 20 -60 30 -91 84 -115 202 -21 100 -20 126 8 131
41 8 47 7 47 -5z m214 -415 c11 -15 88 -107 170 -203 83 -96 178 -214 213
-261 47 -63 75 -91 103 -104 32 -15 45 -29 65 -74 14 -30 37 -70 51 -88 13
-17 32 -59 43 -91 10 -32 31 -79 48 -103 16 -24 44 -87 62 -139 18 -52 72
-187 121 -300 91 -213 125 -309 160 -447 26 -106 76 -235 138 -359 49 -97 87
-202 77 -212 -3 -3 -5 0 -5 6 0 7 -4 12 -10 12 -19 0 -10 -62 24 -163 18 -56
37 -118 40 -137 4 -19 25 -89 46 -155 21 -66 42 -136 46 -155 3 -19 15 -46 25
-60 13 -16 21 -50 25 -95 4 -39 15 -99 25 -135 22 -77 81 -380 83 -430 1 -39
30 -110 49 -122 24 -15 -53 -65 -110 -72 -29 -3 -77 -15 -107 -27 -48 -17 -63
-19 -112 -10 -32 6 -72 11 -89 11 -23 0 -41 10 -69 39 -28 29 -51 41 -93 51
-70 15 -128 39 -221 92 -57 33 -71 45 -66 60 3 10 1 18 -5 18 -5 0 -7 14 -4
33 4 24 0 37 -16 51 -22 20 -136 51 -239 65 -44 6 -79 19 -110 40 -26 17 -62
38 -80 48 -26 14 -31 21 -25 37 16 43 6 121 -26 198 -17 42 -34 92 -37 110
-10 58 -12 62 -29 48 -13 -11 -15 -8 -15 16 -1 44 -33 105 -74 142 -20 17 -41
32 -45 32 -5 0 -8 60 -8 133 1 101 -3 142 -16 176 -9 24 -17 61 -17 83 0 64
-99 238 -185 323 -38 38 -45 52 -45 84 0 62 -35 157 -78 215 -43 56 -119 114
-164 123 -15 3 -34 16 -43 29 -8 13 -24 24 -35 24 -11 0 -41 16 -67 36 -25 19
-67 46 -92 59 -25 13 -83 56 -129 96 l-83 72 45 46 c49 49 57 71 29 71 -32 0
-136 -28 -199 -53 l-61 -24 -39 23 c-21 13 -46 24 -55 24 -18 0 -31 25 -65
125 l-24 70 49 45 c156 143 301 422 321 618 13 123 18 148 42 195 24 47 46 46
73 -6 25 -47 51 -46 84 6 23 36 27 37 81 37 106 0 229 50 310 126 61 57 140
86 221 82 37 -2 63 2 71 10 18 18 28 15 52 -15z m529 -388 c44 -66 96 -138
117 -160 47 -52 110 -145 145 -215 15 -30 45 -80 66 -111 56 -83 127 -228 219
-448 45 -107 89 -210 99 -230 10 -20 22 -47 26 -61 12 -43 -64 87 -168 288
-54 106 -108 199 -118 205 -11 7 -19 19 -19 28 0 10 -13 43 -30 74 -16 31 -30
66 -30 76 0 27 -28 79 -109 207 -38 59 -80 130 -94 157 -14 28 -37 61 -52 75
-15 14 -42 57 -60 95 -17 39 -45 86 -62 105 -16 19 -42 53 -57 75 l-28 40 37
-40 c21 -22 73 -94 118 -160z m-3038 74 c19 -37 45 -76 59 -86 23 -19 25 -26
27 -136 l2 -116 -41 -45 c-23 -25 -42 -52 -42 -61 0 -8 -8 -15 -18 -15 -10 0
-27 -7 -39 -15 -20 -14 -23 -13 -45 23 -12 20 -43 60 -69 88 l-46 51 8 59 c5
32 15 113 24 178 8 66 16 120 17 121 2 1 28 10 58 21 63 23 57 26 105 -67z
m1499 -39 c44 0 43 -10 -35 -281 -22 -77 -56 -131 -84 -135 -11 -1 -31 -6 -43
-10 l-24 -7 23 44 c17 33 24 66 27 131 4 83 3 87 -22 109 l-27 23 23 9 c12 4
24 4 26 0 15 -37 39 -77 50 -81 20 -6 14 47 -10 81 -19 26 -22 42 -19 101 1
39 5 74 8 79 2 4 22 -8 44 -28 22 -19 50 -35 63 -35z m1671 -350 c36 -60 71
-112 77 -116 7 -4 7 -9 -2 -14 -13 -8 162 -350 215 -419 20 -25 35 -56 35 -71
0 -15 23 -69 51 -121 144 -262 247 -504 305 -717 2 -8 11 -11 23 -7 17 5 24
-7 56 -107 43 -132 85 -287 84 -308 0 -8 -11 8 -23 36 -33 72 -50 80 -44 20 4
-28 31 -99 72 -184 52 -109 72 -164 96 -267 30 -133 36 -168 20 -127 -5 12
-14 22 -19 22 -13 0 10 -87 79 -290 32 -96 66 -210 75 -253 13 -59 21 -77 31
-73 11 4 12 1 5 -13 -7 -12 -6 -28 2 -50 18 -47 37 -39 38 17 l1 47 8 -39 c8
-40 24 -58 47 -49 7 3 13 1 13 -5 0 -11 -127 -28 -136 -19 -8 7 -128 416 -169
572 -19 72 -43 180 -55 240 -14 73 -32 131 -53 173 -26 50 -29 64 -18 71 10 7
11 13 1 32 -7 13 -20 31 -29 39 -10 8 -34 62 -55 120 -21 58 -81 208 -133 334
-71 173 -93 236 -89 258 4 22 2 28 -12 28 -13 0 -24 25 -49 113 -18 61 -39
135 -49 162 -9 28 -21 66 -27 85 -5 19 -46 114 -89 210 -44 96 -96 222 -115
280 -20 58 -43 116 -53 130 -24 35 -198 380 -189 374 5 -2 38 -54 74 -114z
m-3039 -82 c11 -12 31 -39 43 -60 26 -43 256 -254 343 -315 34 -24 76 -48 95
-55 39 -14 40 -19 13 -43 -12 -11 -20 -31 -20 -50 0 -36 -18 -95 -29 -95 -4 0
-18 11 -31 25 -26 28 -45 33 -36 9 3 -8 2 -12 -4 -9 -6 3 -10 15 -10 25 0 20
-136 208 -167 232 -10 7 -31 33 -47 58 -16 25 -59 83 -96 130 -79 100 -110
148 -110 173 0 22 24 11 56 -25z m336 -171 c36 -26 74 -58 85 -71 19 -26 173
-96 256 -117 48 -12 204 -8 242 5 11 4 2 -4 -20 -18 -52 -33 -112 -41 -211
-28 -69 9 -92 17 -150 55 -38 24 -89 52 -114 63 -31 13 -76 51 -145 123 -64
67 -84 92 -55 70 25 -20 75 -56 112 -82z m3278 -575 c0 -8 34 -114 75 -237 72
-214 85 -265 67 -265 -19 0 -95 204 -87 230 4 13 -14 77 -48 173 -74 203 -76
212 -38 157 17 -25 31 -51 31 -58z m-2209 8 c50 -34 93 -59 96 -57 7 7 -24 36
-81 75 -58 40 -55 52 5 21 84 -42 289 -272 265 -296 -9 -9 -55 19 -134 79 -35
27 -98 67 -140 90 -83 46 -166 117 -121 103 31 -9 117 -65 183 -119 59 -48
111 -81 144 -91 43 -13 6 33 -46 58 -26 12 -55 31 -64 43 -21 26 -199 134
-221 134 -9 0 -19 -4 -22 -10 -3 -5 -17 -10 -31 -10 -38 0 -27 -28 26 -68 25
-19 46 -41 48 -49 2 -7 37 -63 77 -123 41 -60 85 -131 98 -157 42 -83 94 -235
111 -323 26 -132 26 -132 40 -127 9 4 12 -5 12 -29 -1 -19 -5 -34 -9 -34 -5 0
-7 -17 -5 -37 2 -24 8 -37 16 -36 15 4 16 -44 0 -49 -8 -3 -7 -18 5 -53 17
-48 22 -85 12 -85 -3 0 -28 12 -56 26 -27 15 -53 23 -57 19 -7 -7 6 -19 68
-58 20 -13 36 -33 38 -45 l4 -23 -49 25 c-48 25 -85 54 -228 179 -43 37 -82
67 -87 67 -4 0 -8 7 -8 15 0 8 -33 48 -72 88 -153 155 -300 315 -354 382 -66
84 -194 270 -194 282 1 4 15 17 33 28 17 11 41 35 53 53 l23 33 18 -27 c10
-15 35 -45 56 -65 20 -21 37 -45 37 -53 0 -8 23 -31 51 -51 31 -23 62 -58 81
-92 31 -56 83 -103 112 -103 9 0 26 -11 38 -25 29 -34 48 -32 48 4 0 31 -16
49 -53 59 -28 8 -243 214 -269 258 -9 16 -31 46 -49 66 -25 29 -30 42 -25 63
13 53 77 87 144 77 25 -3 36 -12 46 -37 8 -18 19 -36 25 -40 6 -3 30 -31 52
-61 22 -30 57 -66 78 -80 25 -16 50 -47 71 -85 22 -41 42 -65 63 -75 49 -23
187 -250 187 -306 0 -26 -32 -27 -63 -1 -41 33 -79 29 -45 -5 9 -9 9 -12 0
-12 -7 0 -12 -9 -12 -21 0 -34 -20 -11 -52 60 -33 73 -54 101 -76 101 -17 0
-17 -1 33 -127 39 -103 55 -204 36 -227 -15 -18 -1 -50 30 -67 28 -15 31 -9
20 42 -15 65 -14 172 2 167 6 -2 19 -18 27 -36 24 -52 70 -41 85 20 4 15 13
32 20 38 16 13 28 -23 47 -135 6 -38 17 -77 24 -86 8 -8 14 -30 14 -47 0 -17
8 -38 18 -48 16 -17 17 -16 20 19 2 21 -5 56 -17 83 -12 26 -21 63 -21 83 0
20 -12 68 -26 106 -14 39 -30 99 -36 135 -5 36 -15 72 -22 80 -7 8 -32 48 -55
88 -34 58 -48 74 -71 78 -19 4 -30 14 -34 29 -3 12 -24 44 -46 71 -22 27 -43
58 -46 69 -3 12 -23 32 -45 45 -21 14 -39 28 -39 32 0 5 -25 35 -55 68 -30 33
-55 64 -55 70 0 6 28 10 63 11 34 0 87 8 117 19 30 10 61 16 67 14 7 -2 54
-31 104 -64z m393 -162 c86 -51 202 -165 244 -240 l32 -56 -6 -110 c-6 -95 -5
-110 10 -115 9 -4 23 2 35 14 l19 20 35 -36 c19 -20 48 -66 63 -103 15 -37 39
-94 53 -127 l27 -60 -7 -215 c-5 -131 -14 -245 -23 -291 -9 -42 -14 -83 -11
-91 3 -8 19 -22 35 -32 20 -11 30 -25 30 -40 0 -27 24 -51 40 -41 5 3 10 14
10 23 0 13 2 13 14 -3 12 -16 16 -17 30 -6 22 18 16 177 -9 214 -9 15 -15 32
-12 39 4 14 47 -49 47 -70 0 -7 12 -36 26 -64 59 -116 80 -227 63 -324 -14
-74 -12 -260 3 -296 16 -42 36 -35 40 15 3 45 14 50 66 33 18 -6 22 -4 22 15
0 12 -10 37 -21 56 -12 19 -19 37 -16 40 3 3 25 7 49 10 30 3 73 -5 142 -26
54 -17 104 -31 111 -31 8 0 15 -23 19 -61 8 -65 29 -109 52 -109 8 0 14 10 14
23 0 12 4 28 9 36 7 11 13 6 25 -22 15 -37 66 -77 98 -77 14 0 6 -18 -36 -83
-77 -117 -122 -203 -153 -288 -24 -65 -27 -90 -28 -204 -2 -168 -3 -175 -15
-175 -7 0 -10 31 -9 85 2 46 0 87 -3 90 -3 3 -13 -2 -23 -11 -14 -14 -16 -29
-12 -73 5 -54 -4 -104 -15 -85 -3 5 -6 69 -5 142 0 126 -9 170 -30 148 -5 -4
-11 -68 -14 -142 -6 -134 -10 -157 -30 -137 -7 7 -8 47 -2 124 4 63 6 132 3
154 l-5 40 -20 -30 c-18 -27 -20 -44 -18 -175 2 -133 1 -143 -13 -125 -11 14
-14 32 -10 63 3 24 -1 85 -9 137 -8 51 -12 101 -8 110 5 15 2 17 -19 12 -20
-5 -27 -3 -31 13 -6 25 -24 26 -30 3 -2 -10 -2 -90 0 -178 3 -103 1 -155 -5
-146 -5 7 -9 52 -9 100 0 113 -13 231 -25 231 -6 0 -9 -57 -7 -150 3 -149 -4
-201 -15 -118 -11 80 -2 327 12 333 10 4 10 10 -2 33 -15 29 -30 105 -41 207
-3 33 -24 130 -46 215 -32 126 -53 184 -113 310 -41 85 -78 166 -81 179 -4 13
-22 40 -41 60 -18 21 -38 49 -43 64 -6 15 -11 102 -11 194 -1 94 -8 205 -16
252 -8 46 -14 109 -14 140 0 40 -6 63 -20 81 -11 14 -20 32 -20 41 0 20 -73
170 -108 222 -16 23 -45 72 -65 108 -20 36 -43 72 -52 79 -8 7 -15 19 -15 27
0 8 -16 35 -35 60 -19 25 -35 52 -35 59 0 17 -37 37 -55 30 -15 -5 -29 20 -19
36 3 5 -3 12 -13 14 -11 3 -24 17 -31 32 -6 15 -19 38 -28 50 l-18 24 40 -17
c21 -9 70 -34 108 -57z m-1870 -82 c8 -18 24 -40 36 -49 12 -8 105 -106 208
-218 103 -111 193 -204 200 -207 25 -8 11 28 -28 73 -39 45 -49 65 -31 65 13
0 77 -74 96 -109 14 -28 14 -31 0 -31 -8 0 -15 -3 -15 -7 0 -4 53 -61 118
-127 64 -66 103 -108 86 -95 -63 51 -247 215 -268 239 -11 14 -72 75 -134 135
-61 61 -112 117 -112 125 0 9 -39 54 -86 100 -47 47 -94 102 -105 123 l-20 38
20 -11 c12 -6 27 -26 35 -44z m-1039 -112 c37 -46 95 -108 128 -137 34 -28 87
-77 117 -108 30 -31 74 -66 97 -78 23 -11 45 -26 49 -33 11 -18 -102 48 -176
103 -36 26 -86 69 -112 96 -57 59 -198 233 -198 244 0 21 34 -10 95 -87z m972
0 c55 -69 300 -313 405 -403 59 -50 118 -105 130 -122 27 -37 453 -413 582
-514 80 -62 87 -70 68 -78 -11 -5 -31 -7 -44 -4 -32 8 -204 155 -308 262 -47
48 -136 130 -198 182 -236 199 -652 605 -671 656 -25 65 -6 75 36 21z m884
-50 c-1 -16 -16 -54 -31 -85 -16 -31 -40 -97 -54 -147 -14 -49 -30 -102 -36
-116 -5 -15 -6 -26 -1 -26 16 0 48 62 80 152 38 111 68 168 85 168 15 0 69
-58 64 -69 -2 -3 -18 -37 -37 -76 -19 -38 -51 -118 -71 -177 -28 -82 -39 -105
-48 -96 -18 18 -15 38 13 90 14 26 25 55 25 64 0 9 17 58 38 108 57 133 56
128 29 124 -16 -2 -25 -14 -35 -48 -8 -25 -24 -65 -37 -90 -12 -25 -33 -76
-45 -115 -13 -38 -24 -72 -26 -74 -8 -9 -64 53 -64 69 0 43 130 382 144 377 6
-2 9 -17 7 -33z m-276 -661 c368 -332 459 -418 425 -402 -14 7 -63 49 -110 94
-47 45 -107 97 -135 115 -27 19 -99 79 -160 134 -60 56 -143 128 -183 161 -65
53 -142 137 -142 155 0 3 -16 13 -35 20 -20 8 -48 30 -62 49 -15 20 -89 100
-166 178 -78 80 -136 147 -132 153 4 6 87 -70 198 -183 106 -106 332 -320 502
-474z m-443 322 c150 -149 327 -315 393 -369 66 -55 154 -132 196 -173 42 -40
82 -73 88 -73 6 0 28 -15 48 -34 21 -18 60 -49 86 -70 51 -38 42 -47 -20 -21
-45 19 -103 65 -208 165 -44 42 -150 134 -235 205 -164 135 -640 605 -640 631
0 9 4 14 10 12 5 -1 132 -125 282 -273z m13 -116 c229 -224 356 -339 425 -385
38 -25 61 -66 46 -82 -6 -5 -69 58 -78 77 -2 4 -30 27 -63 53 -75 57 -397 347
-529 477 -91 89 -156 170 -156 195 0 12 45 -30 355 -335z m100 -181 c55 -45
120 -105 145 -131 25 -27 115 -110 200 -184 85 -75 178 -157 205 -183 28 -26
70 -58 95 -73 25 -14 95 -65 155 -114 61 -48 129 -101 153 -116 46 -30 49 -52
4 -36 -31 11 -601 462 -710 563 -41 37 -94 80 -118 95 -24 16 -64 51 -89 79
-26 28 -89 88 -141 133 -89 76 -250 250 -319 344 -17 22 49 -35 145 -127 96
-91 220 -204 275 -250z m-501 303 c23 -16 80 -71 127 -122 46 -50 127 -127
179 -169 95 -78 144 -125 172 -167 8 -13 50 -49 94 -82 78 -58 291 -240 409
-350 34 -31 145 -116 248 -189 204 -145 326 -244 309 -250 -17 -5 -50 16 -57
38 -3 11 -12 20 -19 20 -26 0 -113 53 -190 117 -44 35 -100 75 -125 88 -25 12
-55 33 -66 46 -11 12 -94 82 -185 154 -91 73 -174 142 -185 155 -11 12 -38 31
-61 40 -25 11 -50 32 -64 54 -12 20 -56 61 -96 92 -93 68 -558 529 -549 543 9
15 11 15 59 -18z m-34 -58 c78 -94 435 -453 498 -502 29 -22 72 -64 95 -93
l41 -53 -40 35 c-23 19 -85 76 -140 125 -54 50 -122 105 -151 123 -28 18 -69
57 -91 86 -22 29 -53 58 -69 65 -29 13 -62 52 -88 108 -8 18 -27 39 -43 47
-38 20 -71 58 -82 94 -14 50 8 39 70 -35z m1275 -419 c77 -68 172 -146 211
-173 75 -53 101 -78 91 -87 -14 -15 -58 10 -103 56 -27 28 -72 64 -101 80 -29
16 -96 72 -150 123 -54 51 -129 118 -168 149 -38 32 -117 102 -175 158 l-105
101 180 -142 c99 -78 243 -197 320 -265z m1189 330 c-7 -23 -10 -44 -8 -47 4
-4 -100 -233 -143 -312 -13 -25 -81 -111 -130 -165 -11 -12 -13 -11 -13 7 0
12 25 50 55 85 67 76 208 350 199 385 -3 12 2 45 11 73 15 45 18 49 30 34 10
-14 10 -26 -1 -60z m1 -166 c-31 -92 -100 -237 -147 -307 -47 -69 -98 -131
-109 -131 -15 0 37 94 114 209 68 101 106 176 142 274 29 81 29 44 0 -45z m35
-72 c-17 -77 -54 -158 -126 -278 -66 -110 -121 -178 -143 -178 -24 0 -9 38 39
97 75 92 152 220 195 323 21 50 40 89 42 87 2 -3 -1 -25 -7 -51z m-2080 -193
c107 -93 201 -178 209 -187 8 -9 53 -45 100 -79 47 -34 177 -133 289 -222 112
-88 222 -172 244 -186 23 -15 45 -34 50 -42 7 -14 5 -15 -22 -6 -59 21 -336
224 -430 315 -30 29 -74 66 -97 81 -73 49 -233 174 -233 183 0 4 -40 40 -88
79 -49 38 -101 88 -116 110 -16 22 -37 43 -48 47 -33 10 -98 75 -98 97 l0 20
23 -20 c12 -11 110 -96 217 -190z m830 -258 l25 -27 -30 8 c-61 15 -79 26
-164 108 -47 46 -101 91 -119 100 -34 18 -38 26 -21 43 8 8 47 -17 148 -97 75
-59 147 -120 161 -135z m-854 187 c21 -16 61 -55 88 -87 30 -34 88 -83 146
-121 53 -35 159 -116 235 -180 77 -64 167 -137 200 -162 78 -59 89 -71 40 -42
-57 33 -166 114 -194 144 -13 14 -37 28 -53 31 -16 4 -38 20 -50 36 -12 16
-45 44 -72 62 -28 18 -70 49 -93 69 -23 20 -51 39 -61 42 -11 4 -33 24 -51 46
-18 22 -63 61 -101 86 -46 30 -72 54 -79 74 -12 37 -4 38 45 2z m749 -432 c50
-33 104 -72 120 -89 17 -16 65 -52 107 -80 83 -55 99 -71 72 -71 -36 0 -102
43 -219 141 -66 55 -142 114 -170 130 -27 16 -88 68 -135 116 l-85 86 110 -87
c61 -48 151 -114 200 -146z m360 151 c28 -27 73 -63 100 -81 84 -56 157 -122
147 -132 -6 -6 -20 -7 -32 -3 -17 5 -19 10 -9 21 9 11 6 14 -17 14 -22 0 -60
25 -149 96 -66 53 -131 104 -145 115 -20 15 -22 20 -11 28 22 14 61 -5 116
-58z m-148 15 c15 -18 39 -39 53 -46 14 -7 46 -32 71 -56 26 -23 68 -53 95
-67 59 -30 101 -63 92 -72 -13 -13 -98 35 -214 122 -66 49 -134 100 -152 112
-26 18 -31 26 -20 32 25 16 47 9 75 -25z m358 -1 c47 -19 207 -144 199 -156
-8 -14 -42 -11 -77 8 -39 19 -132 86 -169 121 -44 40 -18 55 47 27z m-1056
-128 c114 -82 249 -187 239 -187 -34 0 -124 50 -225 126 -69 52 -128 94 -132
94 -4 0 -12 16 -18 35 -8 23 -8 33 -1 29 6 -4 67 -47 137 -97z m1970 -12 c-23
-94 -38 -134 -55 -155 -7 -8 -22 -41 -34 -72 -12 -31 -30 -67 -41 -80 l-20
-23 6 30 c3 17 33 87 66 156 32 70 62 142 65 160 l7 34 -25 -23 c-14 -13 -49
-76 -77 -140 -69 -157 -78 -172 -86 -150 -7 17 13 62 49 113 20 29 28 46 56
125 21 57 45 101 48 90 5 -15 28 -12 42 5 7 9 14 14 16 12 2 -1 -6 -39 -17
-82z m1776 -175 c20 -58 50 -152 66 -209 31 -113 30 -121 -23 -121 -22 0 -28
5 -28 21 0 11 -5 29 -10 39 -8 14 -6 21 5 27 14 8 13 22 -4 127 -12 70 -29
132 -41 153 -12 21 -18 43 -14 55 3 11 7 18 9 16 2 -2 20 -50 40 -108z m-3930
30 c10 -11 35 -28 54 -37 20 -9 65 -40 101 -69 36 -28 112 -82 170 -119 58
-37 119 -80 135 -95 17 -15 89 -64 161 -108 128 -80 232 -161 206 -162 -19 0
-40 12 -207 121 -82 53 -166 113 -186 133 -19 20 -45 36 -57 36 -21 0 -53 23
-172 119 -36 29 -85 63 -110 76 -25 13 -51 33 -57 44 -7 11 -31 33 -53 47 -22
15 -40 33 -40 41 0 17 27 4 55 -27z m1486 -75 c64 -47 161 -111 215 -142 92
-55 123 -83 91 -83 -8 0 -34 15 -58 34 -25 18 -87 57 -139 86 -103 57 -300
195 -300 211 0 19 77 -24 191 -106z m-1515 20 c126 -101 279 -212 503 -364
150 -101 161 -111 130 -111 -19 0 -47 8 -64 18 -55 34 -269 192 -325 241 -30
26 -75 59 -100 73 -25 15 -85 59 -134 98 -49 39 -97 75 -106 80 -19 10 -34 50
-20 50 5 0 57 -38 116 -85z m-67 -46 c5 8 21 -1 47 -27 21 -21 108 -85 193
-143 85 -57 169 -118 185 -134 17 -17 52 -41 77 -53 48 -24 107 -77 96 -89
-12 -11 -49 12 -167 104 -63 49 -133 100 -155 113 -22 13 -57 39 -78 58 -22
18 -71 54 -109 79 -39 25 -95 67 -124 92 -29 25 -61 53 -72 61 -11 8 -23 26
-27 40 -5 19 9 9 61 -44 43 -45 69 -64 73 -57z m785 -304 c153 -104 274 -191
267 -193 -24 -8 -78 24 -175 105 -54 46 -103 83 -108 83 -5 0 -50 30 -101 66
-51 36 -113 77 -138 89 -25 13 -52 31 -59 40 -8 10 -53 43 -100 75 -47 32 -98
72 -115 90 -17 18 31 -11 110 -67 77 -55 266 -184 419 -288z m-849 191 c44
-33 100 -79 125 -101 25 -23 75 -58 112 -78 37 -20 116 -72 175 -115 60 -43
125 -88 146 -101 50 -31 73 -71 40 -71 -33 0 -103 43 -170 104 -37 34 -86 73
-108 86 -22 13 -93 63 -157 112 -65 48 -141 103 -171 122 -60 39 -72 50 -86
89 -13 34 -14 34 94 -47z m86 18 c41 -31 88 -63 105 -70 17 -7 45 -29 62 -48
16 -19 48 -44 69 -54 21 -11 90 -59 153 -106 161 -120 166 -124 160 -129 -10
-11 -66 24 -163 102 -54 44 -113 85 -130 92 -18 7 -54 32 -82 54 -27 23 -77
59 -110 80 -70 44 -111 77 -137 111 -31 39 -7 28 73 -32z m578 22 c15 -8 33
-22 40 -30 12 -14 10 -16 -10 -16 -38 0 -10 -16 66 -39 94 -28 100 -33 84 -59
-17 -28 -4 -40 20 -18 17 16 24 13 137 -70 66 -48 147 -108 181 -133 39 -28
59 -49 53 -55 -15 -15 -92 21 -150 70 -79 67 -171 131 -221 152 -24 11 -64 37
-89 59 -25 22 -78 61 -117 87 -40 26 -75 52 -79 57 -8 14 54 10 85 -5z m926
-15 c28 -16 66 -45 84 -65 19 -20 43 -36 52 -36 18 0 159 -89 159 -101 0 -24
-40 -10 -124 44 -53 34 -140 90 -193 125 -93 59 -96 62 -63 62 20 0 56 -12 85
-29z m-650 -90 c68 -32 230 -145 290 -202 22 -21 52 -41 66 -44 14 -4 48 -24
74 -46 26 -21 54 -39 62 -39 8 0 23 -10 33 -23 10 -12 55 -41 101 -64 46 -24
134 -81 194 -129 61 -47 140 -103 177 -125 59 -35 104 -79 81 -79 -18 0 -285
157 -420 247 -130 86 -143 97 -149 129 -6 34 -8 35 -38 30 -35 -7 -69 14 -255
152 -46 35 -103 74 -126 87 -23 14 -47 37 -54 51 -7 15 -17 24 -25 21 -8 -3
-38 10 -67 29 -45 28 -49 34 -29 34 14 0 52 -13 85 -29z m165 -12 c30 -16 119
-79 198 -140 187 -144 398 -295 544 -389 64 -41 117 -79 117 -83 1 -13 -113
53 -202 117 -45 33 -138 95 -207 139 -68 43 -145 96 -170 116 -25 21 -65 49
-90 61 -25 12 -90 55 -145 94 -55 40 -117 82 -137 95 -21 12 -38 25 -38 28 0
12 79 -11 130 -38z m2282 -108 c41 -35 64 -47 109 -55 20 -3 44 -15 54 -26 10
-11 43 -29 73 -40 31 -12 59 -23 63 -26 5 -2 -5 -24 -22 -48 -61 -91 -92 -173
-99 -265 -4 -47 -8 -76 -9 -64 -2 30 -11 53 -22 53 -13 0 -11 -89 2 -151 11
-50 10 -54 -11 -71 -12 -10 -34 -18 -49 -18 -27 0 -28 2 -50 113 -28 137 -28
140 -41 132 -14 -9 -12 -71 5 -161 17 -88 13 -99 -41 -110 -36 -7 -34 -14 -55
179 -11 99 -20 126 -32 95 -3 -7 -3 -62 -1 -123 3 -108 3 -109 -10 -60 -8 28
-15 80 -15 117 -1 70 -7 98 -22 98 -12 0 -11 -155 1 -220 11 -57 38 -99 51
-79 4 6 12 8 18 5 16 -10 13 -26 -4 -26 -9 0 -26 -7 -40 -16 -13 -8 -38 -14
-57 -12 -30 3 -35 8 -50 53 -10 31 -17 82 -18 133 0 75 -2 82 -20 82 -45 0
-16 141 55 276 19 36 35 72 35 80 0 43 116 184 151 184 10 0 33 -13 51 -29z
m601 -118 c-3 -21 -11 -45 -18 -53 -7 -8 -28 -42 -46 -74 -22 -40 -42 -63 -61
-70 -23 -8 -28 -16 -26 -36 3 -21 -3 -27 -32 -36 -19 -6 -66 -15 -104 -19
l-69 -7 7 36 c25 135 142 252 284 285 68 16 71 15 65 -26z m551 1 c73 -32 85
-54 31 -54 -25 0 -35 -4 -35 -15 0 -16 5 -19 53 -29 15 -4 27 -11 27 -17 0 -6
-12 -10 -27 -9 -16 1 -34 2 -40 1 -19 -2 -16 -28 5 -40 11 -7 13 -13 6 -18
-13 -9 -31 -313 -18 -313 4 0 16 8 27 18 20 16 20 16 13 -8 -3 -14 -9 -52 -12
-85 l-7 -61 -63 -12 c-77 -15 -104 -15 -104 -2 0 6 8 10 19 10 10 0 23 6 29
13 14 17 -58 87 -90 87 -12 0 -19 -3 -15 -6 3 -4 0 -13 -8 -21 -27 -26 -17
-35 30 -27 27 4 45 2 45 -3 0 -13 -45 -33 -75 -33 -29 0 -33 -15 -7 -29 13 -8
2 -10 -44 -11 -48 0 -63 4 -68 16 -5 13 -14 15 -41 10 -22 -4 -35 -3 -35 4 0
5 12 10 28 10 27 0 61 15 52 23 -3 2 -21 8 -40 13 -46 13 -52 40 -11 49 40 9
40 25 0 25 -44 0 -37 34 9 38 38 4 41 18 7 34 -19 8 -32 8 -52 -1 -25 -11 -26
-11 -13 3 8 8 33 21 54 29 50 17 59 37 17 37 -24 0 -31 4 -31 20 0 13 7 20 20
20 26 0 26 17 -1 25 -19 6 -19 8 -4 25 10 11 13 20 6 24 -6 4 -8 20 -4 38 6
30 5 31 -23 25 -16 -4 -39 -9 -51 -13 -29 -8 -31 12 -3 21 11 3 20 11 20 16 0
6 3 8 8 5 12 -7 72 22 72 35 0 8 -13 10 -42 5 -51 -8 -42 8 11 21 46 12 56 37
12 31 -17 -2 -31 -1 -31 4 0 4 9 8 19 8 27 0 51 10 51 22 0 10 -32 7 -79 -8
-18 -5 -23 -4 -19 7 2 8 19 15 36 17 18 2 32 9 32 16 0 12 25 21 105 40 11 3
57 4 102 2 65 -2 94 -8 147 -32z m-4094 -127 c277 -198 575 -385 813 -512 85
-46 123 -71 115 -77 -26 -16 -57 -7 -121 37 -37 25 -76 45 -88 45 -19 0 -205
117 -419 263 -25 17 -101 68 -170 113 -69 45 -140 96 -158 113 -19 17 -40 31
-49 31 -20 0 -73 54 -73 75 0 19 -8 24 150 -88z m790 -92 c58 -36 117 -79 132
-96 14 -17 31 -29 36 -25 5 3 17 -3 27 -14 10 -11 34 -25 54 -31 20 -6 46 -19
57 -28 12 -9 58 -44 103 -79 45 -35 102 -72 127 -84 55 -24 53 -34 -3 -14 -64
22 -110 49 -243 138 -69 46 -146 93 -173 103 -36 16 -50 27 -59 53 -10 26 -17
32 -43 32 -31 0 -108 40 -160 84 l-30 25 35 1 c26 0 62 -17 140 -65z m-467
-27 c20 -12 37 -29 37 -39 0 -19 27 -34 32 -17 4 10 226 -124 488 -294 47 -30
102 -60 122 -67 20 -7 42 -19 50 -28 26 -32 -73 -9 -135 30 -31 20 -88 52
-125 71 -38 19 -74 41 -81 50 -7 9 -57 39 -110 66 -53 28 -138 82 -190 120
-52 38 -106 72 -121 75 -15 3 -41 20 -59 37 -25 24 -29 34 -20 44 10 12 17 11
43 -6 17 -11 48 -30 69 -42z m1773 5 c-15 -62 -29 -84 -57 -90 -22 -4 -29 -11
-29 -29 0 -25 -132 -196 -175 -227 l-25 -18 12 28 c23 54 56 99 132 183 42 46
87 106 99 132 25 53 54 67 43 21z m-1593 -42 c21 -14 52 -35 69 -46 16 -11 85
-56 152 -101 66 -44 164 -103 216 -131 140 -76 218 -138 97 -77 -112 57 -580
345 -617 381 -26 25 39 5 83 -26z m86 16 c29 -12 244 -146 376 -234 35 -23 81
-51 102 -61 21 -11 47 -29 57 -41 11 -12 25 -21 33 -21 8 0 31 -11 51 -25 20
-14 43 -26 52 -26 8 -1 -12 -5 -45 -9 -64 -7 -112 1 -60 10 27 5 15 14 -150
115 -208 126 -465 292 -465 300 0 8 16 6 49 -8z m-457 -42 c35 -24 95 -63 133
-87 39 -23 83 -54 98 -70 16 -15 32 -28 37 -28 4 0 32 -17 61 -37 59 -41 161
-97 255 -142 34 -16 65 -35 69 -41 13 -22 -55 0 -147 46 -48 24 -92 44 -98 44
-5 0 -23 14 -38 30 -16 17 -33 30 -38 30 -15 0 -76 33 -114 62 -19 14 -72 44
-117 67 -90 45 -146 89 -169 132 -27 54 -14 52 68 -6z m3368 5 c0 -5 -19 -20
-43 -34 -41 -25 -100 -42 -222 -67 -57 -11 -59 -12 -32 -22 36 -12 130 6 205
39 67 30 81 30 56 3 -38 -42 -114 -68 -241 -82 -27 -3 -34 1 -44 25 -19 46 -8
54 93 72 105 19 171 40 188 62 14 16 40 19 40 4z m-2690 -21 c24 -11 68 -37
96 -59 52 -39 122 -80 137 -80 5 0 26 -15 47 -32 21 -18 74 -52 119 -76 86
-46 113 -70 67 -58 -57 14 -156 69 -309 170 -86 57 -178 112 -202 122 -25 9
-45 21 -45 25 0 15 43 9 90 -12z m-278 -383 c106 -57 228 -119 270 -137 43
-18 75 -35 73 -37 -9 -10 -105 21 -197 64 -54 24 -104 44 -113 44 -8 0 -15 6
-15 13 0 12 -83 47 -113 47 -8 0 -17 6 -20 13 -3 8 -37 30 -76 51 -51 27 -71
43 -71 57 0 18 2 18 35 5 19 -8 122 -62 227 -120z m-399 -72 c26 -9 47 -19 47
-23 0 -15 -41 -126 -49 -134 -13 -13 -125 29 -129 48 -2 9 7 33 20 53 14 20
27 45 31 55 8 21 21 21 80 1z m377 -86 c0 -31 -15 -52 -30 -43 -9 6 -10 -1 -5
-24 9 -43 -8 -61 -59 -61 -62 0 -71 9 -52 53 14 34 17 36 48 31 31 -5 32 -5
14 10 -11 9 -26 16 -33 16 -7 0 -13 4 -13 8 0 20 28 32 77 32 48 0 53 -2 53
-22z m1312 -60 c-7 -30 -20 -38 -64 -38 -27 0 -41 6 -52 22 -13 18 -16 19 -16
6 0 -10 -13 -27 -30 -40 -37 -27 -38 -38 -5 -38 23 0 25 -3 19 -27 -9 -37 -12
-40 -61 -46 -50 -6 -54 5 -27 68 8 21 13 46 11 56 -8 28 75 56 175 58 53 1 56
0 50 -21z m-324 -776 c2 -18 -14 -81 -37 -149 -23 -64 -41 -126 -41 -138 0
-18 -6 -20 -54 -20 -63 0 -72 5 -56 34 7 13 21 21 38 21 53 0 74 11 68 34 -3
12 1 34 9 50 8 16 15 44 15 62 0 19 7 51 15 71 8 19 15 44 15 55 0 32 25 14
28 -20z m-482 -54 c3 -3 -1 -36 -7 -72 l-13 -67 -60 3 c-60 3 -61 3 -61 33 0
30 1 30 58 33 71 4 74 25 4 30 -48 3 -59 16 -34 41 11 12 100 11 113 -1z
m-496 -623 c47 -8 100 -15 118 -15 27 0 32 -4 32 -22 0 -45 -10 -49 -101 -37
-93 11 -158 24 -166 33 -8 7 14 56 24 56 5 0 46 -7 93 -15z"/>
<path style="fill: rgb(245,0,182);" d="M1753 6301 c5 -25 3 -28 -13 -24 -11 3 -20 2 -20 -1 0 -17 99 -154
142 -197 48 -48 124 -96 136 -85 13 14 -17 49 -67 79 -41 24 -67 51 -108 112
l-55 80 59 -61 c59 -63 109 -101 119 -91 11 10 -16 45 -74 95 -32 28 -67 67
-77 86 -24 45 -50 49 -42 7z"/>
<path style="fill: rgb(245,0,182);" d="M1535 6033 c19 -76 244 -328 367 -409 68 -46 178 -97 187 -88 11 11
-41 49 -116 85 -54 26 -92 52 -110 74 -15 20 -54 56 -86 81 -31 25 -65 60 -74
77 -9 18 -38 57 -66 87 -28 30 -56 70 -64 88 -17 40 -48 45 -38 5z"/>
<path style="fill: rgb(245,0,182);" d="M1850 5775 c0 -23 33 -62 79 -92 78 -52 281 -153 308 -153 52 0 26
23 -89 78 -68 32 -160 84 -206 115 -80 55 -92 62 -92 52z"/>
<path style="fill: rgb(245,0,182);" d="M4994 4787 c3 -21 23 -75 46 -120 22 -45 43 -100 47 -122 3 -22 15
-52 26 -67 18 -24 18 -29 6 -44 -11 -13 -11 -18 -1 -21 6 -3 10 -9 6 -14 -3
-5 15 -54 41 -109 27 -57 46 -111 44 -127 -3 -46 78 -199 96 -181 3 2 -24 92
-59 199 -35 107 -81 248 -101 314 -40 132 -100 266 -134 305 l-22 25 5 -38z"/>
<path style="fill: rgb(245,0,182);" d="M5758 2455 c-3 -3 0 -26 5 -51 8 -33 8 -51 0 -63 -7 -11 -8 -23 -2
-32 5 -8 9 -37 9 -66 0 -46 -2 -52 -22 -55 -13 -2 -24 -11 -26 -21 -3 -15 1
-17 22 -11 33 8 34 -9 1 -24 -14 -6 -25 -16 -25 -22 0 -12 96 -14 104 -2 2 4
-1 27 -7 50 -9 32 -8 50 1 74 7 20 8 36 2 42 -6 6 1 21 17 40 l26 31 -24 3
c-21 2 -25 9 -26 37 -1 23 4 35 12 35 20 0 30 21 14 31 -15 9 -72 12 -81 4z"/>
<path style="fill: rgb(245,0,182);" d="M540 5485 c0 -32 14 -61 49 -99 24 -26 24 -28 4 -17 -38 20 -28 -12
15 -48 45 -39 140 -101 154 -101 7 0 8 -14 5 -35 -3 -19 -2 -35 4 -35 5 0 18
-9 29 -20 12 -12 33 -20 54 -20 19 0 38 -4 41 -10 9 -14 -59 -13 -109 2 -41
13 -124 85 -179 158 l-27 35 0 -31 c0 -30 9 -46 80 -138 43 -55 71 -65 208
-73 56 -3 101 -8 99 -10 -2 -2 -36 -10 -75 -17 -66 -12 -73 -12 -102 5 -17 11
-39 19 -50 19 -31 0 -24 -28 13 -50 52 -32 123 -26 255 19 61 22 112 36 112
31 0 -4 -16 -32 -36 -61 -45 -67 -73 -127 -74 -157 0 -46 25 -15 83 102 57
117 87 200 75 211 -3 4 -32 2 -64 -4 -81 -15 -208 -14 -247 3 -18 7 -43 25
-56 39 l-24 27 144 -6 c176 -8 217 1 274 59 33 34 37 42 22 45 -16 3 -16 5 3
29 48 62 4 72 -61 14 -25 -21 -62 -44 -84 -50 -56 -15 -200 -13 -263 3 -69 19
-89 32 -170 117 -83 88 -102 100 -102 64z"/>
</g>
</svg>
