<svg id="Capa_1" enable-background="new 0 0 512.01 512.01" height="100px" width="100px" viewBox="0 0 512.01 512.01"
    xmlns="http://www.w3.org/2000/svg">
    <g>
        <g>
            <path style="fill: rgb(245,0,182);" d="m397.168 99.29h-55.074c-4.142 0-7.5 3.358-7.5 7.5s3.358 7.5 7.5 7.5h55.074c1.925 0 3.491 1.566 3.491 3.491v100.78h-60.446l-50.394-28.897c-3.799-2.178-8.219-2.747-12.447-1.601s-7.755 3.87-9.934 7.669l-13.091 22.829h-78.683l-21.084-104.271h152.119c4.142 0 7.5-3.358 7.5-7.5s-3.358-7.5-7.5-7.5h-155.152l-6.516-32.224c1.521-.652 3.015-1.417 4.467-2.305 16.438-10.046 21.637-31.591 11.591-48.029-4.866-7.962-12.542-13.554-21.614-15.743-9.072-2.19-18.454-.715-26.416 4.151-16.436 10.046-21.636 31.592-11.59 48.03 6.383 10.445 17.411 16.335 28.821 16.677l5.954 29.444h-3.483c-10.196 0-18.491 8.295-18.491 18.491v141.048c0 4.142 3.358 7.5 7.5 7.5s7.5-3.358 7.5-7.5v-25.27h34.124l20.895 103.336h-55.019v-42.672c0-4.142-3.358-7.5-7.5-7.5s-7.5 3.358-7.5 7.5v177.314c0 22.316 18.156 40.472 40.472 40.472h220.444c22.316 0 40.472-18.156 40.472-40.472v-353.758c.001-10.195-8.294-18.49-18.49-18.49zm-282.9-53.943c-5.732-9.38-2.765-21.675 6.615-27.408 3.237-1.979 6.821-2.92 10.364-2.92 6.721 0 13.291 3.393 17.044 9.536 2.777 4.544 3.618 9.897 2.369 15.074s-4.439 9.557-8.983 12.334c-4.543 2.777-9.897 3.618-15.074 2.369-5.178-1.25-9.558-4.441-12.335-8.985zm186.856 364.618-7.45-14.533c-1.891-3.686-6.41-5.143-10.096-3.253s-5.142 6.41-3.253 10.096l7.45 14.533c.252.491.057 1.096-.434 1.348l-64.378 33.004c-.491.252-1.097.057-1.348-.434l-33.004-64.379c-.125-.245-.146-.501-.062-.764.084-.262.251-.458.496-.583l64.379-33.004c.109-.056.222-.084.336-.098h.134c.097.002.195.004.294.036.262.084.459.251.584.496l9.491 18.514c1.89 3.686 6.409 5.142 10.096 3.253 3.686-1.89 5.142-6.41 3.253-10.096l-6.256-12.204h129.304v99.385h-145.056l38.58-19.778c7.851-4.026 10.964-13.688 6.94-21.539zm-96.797-49.657-1.701-8.412h18.109zm143.71-119.97c.668.383.899 1.238.517 1.906l-37.662 65.68c-.383.668-1.24.899-1.906.517l-65.68-37.662c-.668-.383-.9-1.238-.517-1.906l20.249-35.313h73.18zm-67.586-37.145c.238-.415.591-.584.846-.653.254-.07.645-.102 1.06.137l27.701 15.884h-38.42zm-151.181 15.367v-100.78c0-1.925 1.566-3.491 3.491-3.491h6.516l21.084 104.271zm49.427 15h67.049l-15.97 27.851c-2.179 3.8-2.747 8.22-1.601 12.447s3.87 7.755 7.669 9.934l65.68 37.662c2.565 1.471 5.364 2.169 8.128 2.169 5.688 0 11.225-2.959 14.252-8.237l37.662-65.681c2.964-5.169 2.775-11.284.068-16.146h39.024v103.336h-201.065zm8.625 118.336 3.138 15.52-8.259 4.234c-3.803 1.95-6.62 5.264-7.931 9.333-1.311 4.068-.958 8.403.991 12.207l29.781 58.092h-75.772v-99.385h58.052zm187.865 145.114h-220.445c-14.045 0-25.472-11.427-25.472-25.472v-5.257h271.389v5.257c0 14.045-11.427 25.472-25.472 25.472z"/>
            <path style="fill: rgb(245,0,182);" d="m340.048 391.633c.112 0 .225-.002.338-.007 4.138-.184 7.344-3.687 7.161-7.825l-.013-.297c-.184-4.139-3.705-7.349-7.825-7.161-4.138.184-7.344 3.687-7.161 7.825l.013.297c.179 4.025 3.498 7.168 7.487 7.168z"/>
            <path style="fill: rgb(245,0,182);" d="m360 413.708c.112 0 .225-.002.338-.007 4.138-.184 7.344-3.687 7.161-7.825l-.013-.297c-.184-4.139-3.702-7.347-7.825-7.161-4.138.184-7.344 3.687-7.161 7.825l.013.297c.179 4.026 3.498 7.168 7.487 7.168z"/>
            <path style="fill: rgb(245,0,182);" d="m240.427 309.199c-.176-4.139-3.664-7.364-7.813-7.173-4.139.177-7.35 3.675-7.173 7.813l.013.297c.172 4.03 3.493 7.18 7.488 7.18.108 0 .216-.002.325-.007 4.139-.177 7.35-3.675 7.173-7.813z"/>
        </g>
    </g>
</svg>