<svg id="Capa_1" enable-background="new 0 0 512 512" height="200px" viewBox="0 0 512 512" width="200px" xmlns="http://www.w3.org/2000/svg"><g><path  style="fill: rgb(245,0,182);" d="m318.232 512h-124.232c-7.307 0-13.502-4.887-15.066-11.885-1.547-6.918 1.802-13.632 8.332-16.705.09-.042.182-.083.274-.123l60.96-25.76v-128.332l-28.691-22.05c-23.013-17.685-44.309-39.574-44.309-79.645 0-15.235 2.058-63.637 4.787-112.585.23-4.135 3.755-7.29 7.906-7.071 4.135.23 7.301 3.77 7.07 7.906-2.671 47.913-4.764 96.999-4.764 111.75 0 35.252 19.847 53.456 38.449 67.752l27.052 20.789 27.053-20.791c18.602-14.295 38.447-32.499 38.447-67.75 0-4.142 3.357-7.5 7.5-7.5s7.5 3.358 7.5 7.5c0 40.071-21.295 61.959-44.307 79.644l-28.693 22.051v128.332l60.96 25.76c.093.039.185.08.274.123 6.592 3.102 9.974 9.869 8.416 16.837-1.571 7.03-7.566 11.753-14.918 11.753zm-124.537-15.03c.061.015.16.03.305.03h124.232c.05 0 .093-.002.132-.005l-62.364-26.353zm62.305-202.97c-4.687 0-8.5-3.813-8.5-8.5s3.813-8.5 8.5-8.5 8.5 3.813 8.5 8.5-3.813 8.5-8.5 8.5zm-14-63c-11.304 0-20.5-9.196-20.5-20.5s9.196-20.5 20.5-20.5 20.5 9.196 20.5 20.5-9.196 20.5-20.5 20.5zm0-26c-3.033 0-5.5 2.467-5.5 5.5s2.467 5.5 5.5 5.5 5.5-2.467 5.5-5.5-2.467-5.5-5.5-5.5zm86.07-2.554c-4.007 0-7.331-3.167-7.489-7.206-2.029-51.667-7.131-145.5-11.056-180.159-.043-.033-.13-.082-.248-.082h-106.554c-.118 0-.205.048-.248.082-1.473 13.005-3.252 35.761-5.147 65.821-.261 4.133-3.827 7.268-7.957 7.013-4.135-.261-7.274-3.824-7.014-7.958 1.336-21.175 3.326-49.926 5.223-66.647.859-7.587 7.37-13.31 15.143-13.31h106.555c7.772 0 14.283 5.723 15.144 13.312 3.966 34.95 9.109 129.409 11.148 181.34.162 4.139-3.061 7.626-7.2 7.789-.1.003-.201.005-.3.005zm-65.07-38.446c-4.687 0-8.5-3.813-8.5-8.5s3.813-8.5 8.5-8.5 8.5 3.813 8.5 8.5-3.813 8.5-8.5 8.5zm-27-27c-4.687 0-8.5-3.813-8.5-8.5s3.813-8.5 8.5-8.5 8.5 3.813 8.5 8.5-3.813 8.5-8.5 8.5zm36-19c-11.304 0-20.5-9.196-20.5-20.5s9.196-20.5 20.5-20.5 20.5 9.196 20.5 20.5-9.196 20.5-20.5 20.5zm0-26c-3.033 0-5.5 2.467-5.5 5.5s2.467 5.5 5.5 5.5 5.5-2.467 5.5-5.5-2.467-5.5-5.5-5.5zm-37-21c-11.304 0-20.5-9.196-20.5-20.5s9.196-20.5 20.5-20.5 20.5 9.196 20.5 20.5-9.196 20.5-20.5 20.5zm0-26c-3.033 0-5.5 2.467-5.5 5.5s2.467 5.5 5.5 5.5 5.5-2.467 5.5-5.5-2.467-5.5-5.5-5.5zm46 11c-4.687 0-8.5-3.813-8.5-8.5s3.813-8.5 8.5-8.5 8.5 3.813 8.5 8.5-3.813 8.5-8.5 8.5z"/></g></svg>