<svg id="Layer_33" enable-background="new 0 0 64 64" height="200px" width="200px" viewBox="0 0 64 64"
    xmlns="http://www.w3.org/2000/svg">
    <path style="fill: rgb(245,0,182);" d="m29 36c0 1.654 1.346 3 3 3s3-1.346 3-3-1.346-3-3-3-3 1.346-3 3zm4 0c0 .552-.449 1-1 1s-1-.448-1-1 .449-1 1-1 1 .448 1 1z"/>
    <path style="fill: rgb(245,0,182);" d="m35.249 32.66 1.502-1.32c-1.326-1.509-3.013-2.34-4.751-2.34s-3.425.831-4.751 2.34l1.502 1.32c1.909-2.172 4.589-2.172 6.498 0z"/>
    <path style="fill: rgb(245,0,182);" d="m27 41h2v2h-2z"/>
    <path style="fill: rgb(245,0,182);" d="m31 41h6v2h-6z"/>
    <path style="fill: rgb(245,0,182);" d="m27 45h10v2h-10z"/>
    <circle style="fill: rgb(245,0,182);" cx="32" cy="50" r="1"/>
    <circle style="fill: rgb(245,0,182);" cx="36" cy="50" r="1"/>
    <circle style="fill: rgb(245,0,182);" cx="28" cy="50" r="1"/>
    <path style="fill: rgb(245,0,182);" d="m34 25h-4c-3.86 0-7 3.14-7 7v23h18v-23c0-3.86-3.14-7-7-7zm5 28h-14v-21c0-2.757 2.243-5 5-5h4c2.757 0 5 2.243 5 5z"/>
    <path style="fill: rgb(245,0,182);" d="m34 21h-4c-6.065 0-11 4.935-11 11v27h26v-27c0-6.065-4.935-11-11-11zm9 36h-22v-25c0-4.962 4.038-9 9-9h4c4.962 0 9 4.038 9 9z"/>
    <path style="fill: rgb(245,0,182);" d="m48.549 23.164-.816-.532c-4.113-2.675-6.791-4.607-8.005-5.774.743-.292 1.272-1.012 1.272-1.858v-2c0-1.103-.897-2-2-2v-4c1.103 0 2-.897 2-2v-2c0-1.103-.897-2-2-2h-14c-1.103 0-2 .897-2 2v2c0 1.103.897 2 2 2v4c-1.103 0-2 .897-2 2v2c0 .846.529 1.566 1.273 1.858-1.214 1.167-3.892 3.099-8.005 5.774l-.816.532c-.856.562-1.48 1.792-1.451 2.866l1 33.999c.046 1.665 1.339 2.971 2.944 2.971h28.109c1.605 0 2.898-1.306 2.945-2.971l1-34.002c.029-1.071-.595-2.302-1.45-2.863zm-17.549-16.164h2v10h-2zm4 6h4v2h-4zm2-2h-2v-4h2zm-12-8h14l.001 2h-14.001zm2 4h2v4h-2zm-2 6h4v2h-4zm22 46.972c-.016.577-.431 1.028-.945 1.028h-28.11c-.514 0-.93-.451-.946-1.029l-1-33.998c-.01-.364.277-.959.549-1.137l.809-.527c5.843-3.8 8.505-5.849 9.336-7.309h2.307v2h6v-2h2.306c.831 1.459 3.493 3.509 9.336 7.309l.81.528c.271.178.559.773.549 1.134z"/>
</svg>