<?xml version="1.0" encoding="iso-8859-1"?>
<!-- Generator: Adobe Illustrator 19.0.0, SVG Export Plug-In . SVG Version: 6.00 Build 0)  -->
<svg version="1.1" id="Capa_1"
	xmlns="http://www.w3.org/2000/svg"
	xmlns:xlink="http://www.w3.org/1999/xlink" x="0px" y="0px" height="100px" width="100px" viewBox="0 0 512 512" style="enable-background:new 0 0 512 512;" xml:space="preserve">
	<g>
		<g>
			<path style="fill: rgb(245,0,182);" d="M356.881,37.803c-1.596-2.295-4.216-3.669-7.014-3.669H162.133c-2.799,0-5.419,1.374-7.014,3.669
			c-1.596,2.304-1.954,5.239-0.981,7.859l51.2,136.533c1.254,3.328,4.437,5.538,7.996,5.538h85.333c3.558,0,6.741-2.21,7.987-5.538
			l51.2-136.533C358.835,43.042,358.477,40.107,356.881,37.803z M292.753,170.667h-73.506L174.447,51.2h163.106L292.753,170.667z"/>
		</g>
	</g>
	<g>
		<g>
			<path style="fill: rgb(245,0,182);" d="M375.177,467.132l-68.267-256c-0.99-3.729-4.378-6.332-8.243-6.332h-85.333c-3.866,0-7.253,2.603-8.243,6.332l-68.267,256
			c-0.683,2.568-0.137,5.299,1.476,7.398s4.113,3.337,6.767,3.337h221.867c2.654,0,5.146-1.237,6.767-3.337
			C375.322,472.431,375.859,469.7,375.177,467.132z M156.177,460.8l63.71-238.933h72.218L355.823,460.8H156.177z"/>
		</g>
	</g>
	<g>
		<g>
			<path style="fill: rgb(245,0,182);" d="M358.4,0H153.6C139.486,0,128,11.486,128,25.6s11.486,25.6,25.6,25.6h204.8c14.114,0,25.6-11.486,25.6-25.6
			S372.514,0,358.4,0z M358.4,34.133H153.6c-4.702,0-8.533-3.831-8.533-8.533c0-4.702,3.831-8.533,8.533-8.533h204.8
			c4.71,0,8.533,3.831,8.533,8.533C366.933,30.302,363.11,34.133,358.4,34.133z"/>
		</g>
	</g>
	<g>
		<g>
			<path style="fill: rgb(245,0,182);" d="M375.467,460.8H136.533c-14.114,0-25.6,11.486-25.6,25.6s11.486,25.6,25.6,25.6h238.933c14.114,0,25.6-11.486,25.6-25.6
			S389.581,460.8,375.467,460.8z M375.467,494.933H136.533c-4.702,0-8.533-3.823-8.533-8.533s3.831-8.533,8.533-8.533h238.933
			c4.71,0,8.533,3.823,8.533,8.533S380.177,494.933,375.467,494.933z"/>
		</g>
	</g>
	<g>
		<g>
			<path style="fill: rgb(245,0,182);" d="M298.667,170.667h-85.333c-14.114,0-25.6,11.486-25.6,25.6s11.486,25.6,25.6,25.6h85.333c14.114,0,25.6-11.486,25.6-25.6
			S312.781,170.667,298.667,170.667z M298.667,204.8h-85.333c-4.702,0-8.533-3.831-8.533-8.533c0-4.702,3.831-8.533,8.533-8.533
			h85.333c4.71,0,8.533,3.831,8.533,8.533C307.2,200.969,303.377,204.8,298.667,204.8z"/>
		</g>
	</g>
	<g>
		<g>

			<rect style="fill: rgb(245,0,182);" x="217.602" y="66.188" transform="matrix(0.9487 -0.3162 0.3162 0.9487 -22.1252 76.9752)" width="17.067" height="80.956"/>
		</g>
	</g>
	<g>
		<g>

			<rect style="fill: rgb(245,0,182);" x="132.353" y="362.646" transform="matrix(0.2636 -0.9646 0.9646 0.2636 -205.221 473.5305)" width="150.37" height="17.066"/>
		</g>
	</g>
	<g>
		<g>

			<rect style="fill: rgb(245,0,182);" x="222.157" y="260.227" transform="matrix(0.2636 -0.9646 0.9646 0.2636 -85.888 425.011)" width="26.538" height="17.066"/>
		</g>
	</g>
	<g>
	</g>
	<g>
	</g>
	<g>
	</g>
	<g>
	</g>
	<g>
	</g>
	<g>
	</g>
	<g>
	</g>
	<g>
	</g>
	<g>
	</g>
	<g>
	</g>
	<g>
	</g>
	<g>
	</g>
	<g>
	</g>
	<g>
	</g>
	<g>
	</g>
</svg>
