<svg height="100px" viewBox="0 0 64 64" width="100px"
    xmlns="http://www.w3.org/2000/svg">
    <g id="Glyph">
        <path style="fill: rgb(245,0,182);" d="m12.226 29.925a8.6 8.6 0 0 1 4.1-.925 9 9 0 0 1 5.361 1.65 7.017 7.017 0 0 0 4.306 1.35 7.81 7.81 0 0 0 4.5-1.365 9.807 9.807 0 0 1 5.507-1.635 9.2 9.2 0 0 1 1.474.117l.849-2.117h-26.264z"/>
        <path style="fill: rgb(245,0,182);" d="m13.944 60h30.112l.228-4h-30.568z"/>
        <path style="fill: rgb(245,0,182);" d="m40.688 30.774.091.086 1.545-3.86h-1.846l-1.1 2.751a6.708 6.708 0 0 1 1.31 1.023z"/>
        <path style="fill: rgb(245,0,182);" d="m49.677 4-2.9 7.238a6.991 6.991 0 0 1 1.592.631l3.153-7.869z"/>
        <path style="fill: rgb(245,0,182);" d="m41.628 24.131-.348.869h1.845l.095-.238a6.991 6.991 0 0 1 -1.592-.631z"/>
        <path style="fill: red;" d="m36 31a7.809 7.809 0 0 0 -4.5 1.365 9.811 9.811 0 0 1 -5.507 1.635 9 9 0 0 1 -5.361-1.65 7.017 7.017 0 0 0 -4.306-1.35 6.731 6.731 0 0 0 -3.973 1.144l1.247 21.856h30.8l1.145-20.029c-.67.02-1.378.029-1.543.029a5.789 5.789 0 0 1 -4.688-1.774 3.863 3.863 0 0 0 -3.314-1.226zm-19 21h-2v-2h2zm4-3h-2v-2h2z"/>
        <circle style="fill: rgb(245,0,182);" cx="45" cy="18" r="5"/>
        <path style="fill: rgb(245,0,182);" d="m45.658 31.965.283-4.965h-1.462l-1.945 4.858a6.6 6.6 0 0 0 1.466.142c.349 0 1.074-.015 1.658-.035z"/>
    </g>
</svg>