<svg id="Capa_1" enable-background="new 0 0 512 512" height="150" viewBox="0 0 512 512" width="150" xmlns="http://www.w3.org/2000/svg"><g><path  style="fill: rgb(245,0,182);" d="m453.901 80.375h-222.472c-6.986-45.875-46.924-80.896-94.664-80.369-25.297.279-48.971 10.392-66.661 28.477-17.69 18.084-27.279 41.976-27 67.271.091 8.228 6.788 14.835 14.995 14.835.057 0 .113 0 .169-.001 8.284-.091 14.926-6.881 14.834-15.164-.201-18.203 7.184-34.746 19.194-46.649 1.777 22.078 19.475 39.64 41.48 41.331-.617 1.642-.97 3.412-.97 5.269v401.625c0 8.284 6.716 15 15 15h306.095c8.284 0 15-6.716 15-15v-401.625c0-8.284-6.715-15-15-15zm-252.984 0h-35.488c1.424-1.143 2.795-2.367 4.092-3.692 7.698-7.87 12.164-18.05 12.781-28.938.251.238.51.464.758.706 9.036 8.841 15.145 19.874 17.857 31.924zm-63.82-50.371c.057-.001.113-.001.171-.001 3.976 0 7.725 1.528 10.571 4.313 2.888 2.825 4.503 6.606 4.548 10.646.045 4.039-1.487 7.854-4.312 10.743-2.824 2.888-6.604 4.503-10.645 4.547 0 0 0 0-.001 0-.057.001-.113.001-.171.001-3.977 0-7.725-1.528-10.572-4.312-2.888-2.825-4.503-6.606-4.548-10.646-.092-8.339 6.619-15.199 14.959-15.291zm301.804 451.996h-276.094v-371.625h37.543c-1.841 5.599-4.756 10.833-8.643 15.385-5.381 6.299-4.636 15.768 1.663 21.147 2.825 2.414 6.289 3.595 9.735 3.595 4.235 0 8.445-1.784 11.412-5.258 8.573-10.036 14.291-22.07 16.749-34.869h207.635z"/><path style="fill: rgb(245,0,182);" d="m208.057 271.125c-8.284 0-15 6.716-15 15v112.491c0 29.298 23.835 53.134 53.133 53.134h109.328c29.298 0 53.134-23.836 53.134-53.134v-112.491c0-8.284-6.716-15-15-15zm170.594 127.491c0 12.756-10.378 23.134-23.134 23.134h-109.328c-12.756 0-23.133-10.378-23.133-23.134v-97.491h155.595z"/></g></svg>