<svg height="100px" width="100px" viewBox="0 0 56 56"
    xmlns="http://www.w3.org/2000/svg">
    <g id="Page-1" fill-rule="evenodd">
        <g id="030---Strainer" fill="rgb(0,0,0)" fill-rule="nonzero" transform="translate(-1 -1)">
            <path style="fill: rgb(245,0,182);" id="Rectangle-path" d="m13.427 41.529h2.037v4.055h-2.037z" transform="matrix(.707 -.707 .707 .707 -26.568 22.972)"/>
            <path style="fill: rgb(245,0,182);" id="Rectangle-path" d="m10.572 44.383h2.036v4.055h-2.036z" transform="matrix(.707 -.707 .707 .707 -29.423 21.789)"/>
            <path style="fill: rgb(245,0,182);" id="Shape" d="m26.659 28.473-8.659 8.661 2.866 2.866 8.66-8.661c-.5308312-.4205673-1.0376289-.870609-1.518-1.348-.4774177-.4806404-.9277776-.9874205-1.349-1.518z"/>
            <path style="fill: rgb(245,0,182);" id="Rectangle-path" d="m16.28 38.674h2.037v4.055h-2.037z" transform="matrix(.707 -.707 .707 .707 -23.714 24.153)"/>
            <path style="fill: rgb(245,0,182);" id="Shape" d="m7.3 46.384c-.37509602-.375248-.88392663-.5860729-1.4145-.5860729s-1.03940398.2108249-1.4145.5860729c-.39632734.3797466-.62151988.9041132-.624 1.453-.00177262.5307634.20930382 1.0400843.586 1.414l.019.02 4.281 4.281.018.017c.79423318.77909 2.0679875.7724047 2.8539991-.0149791s.790475-2.0611479.0100009-2.8540209z"/>
            <path style="fill: rgb(245,0,182);" id="Shape" d="m1.574 53.559c-.78076388.7809997-.78076388 2.0470003 0 2.828.37468677.3859597.88754135.6069806 1.42540893.6142973.53786758.0073166 1.05654441-.1996723 1.44159107-.5752973l2.167-2.167-2.867-2.867z"/>
            <path style="fill: rgb(245,0,182);" id="Shape" d="m52.269 5.731c-6.3089754-6.30876557-16.537658-6.30865218-22.8464935.00025327-6.3088355 6.30890543-6.3088355 16.53758803 0 22.84649343 6.3088355 6.3089055 16.5375181 6.3090189 22.8464935.0002533 3.0398528-3.0243022 4.7489376-7.1354808 4.7489376-11.4235s-1.7090848-8.39919778-4.7489376-11.4235zm.014 7.324.975-.262c.5324122-.1398151 1.0777088.1769484 1.2200053.7087028.1422966.5317543-.1719204 1.0785222-.7030053 1.2232972l-.974.261c-.0846917.0233384-.1721515.0351119-.26.035-.5017827-.0002717-.9256677-.3723675-.9909573-.8698845-.0652897-.4975171.2482351-.9663838.7329573-1.0961155zm-5.729 2.673c.3940476-.3940152 1.032896-.3939978 1.426922.000039s.394026 1.0328852 0 1.426922-1.0328744.3940542-1.426922.000039c-.1892421-.1892266-.2955585-.4458822-.2955585-.7135s.1063164-.5242734.2955585-.7135zm-3.54-10.528.26-.975c.144775-.53108492.6915429-.84530191 1.2232972-.70300533.5317544.14229658.8485179.68759315.7087028 1.22000533l-.261.974c-.1167435.43717624-.5125049.74148185-.965.742-.0874389-.0001078-.1744959-.01153613-.259-.034-.5330514-.14299963-.8494732-.69080767-.707-1.224zm-.742 6.246c-.3940476.3940152-1.032896.3939978-1.426922-.000039s-.394026-1.0328852 0-1.426922c.394026-.39403677 1.0328744-.39405423 1.426922-.000039.1897337.1889653.2963899.4457188.2963899.7135s-.1066562.5245347-.2963899.7135zm-2.427-7.409c0-.55228475.4477153-1 1-1s1 .44771525 1 1v1.008c0 .55228475-.4477153 1-1 1s-1-.44771525-1-1zm-.427 10.263c.3940476-.3940152 1.032896-.3939978 1.426922.000039s.394026 1.0328852 0 1.426922-1.0328744.3940542-1.426922.000039c-.1897337-.1889653-.2963899-.4457188-.2963899-.7135s.1066562-.5245347.2963899-.7135zm-2.227-10.782c.2562003-.06872393.5292086-.03284136.758949.09975167.2297404.13259304.3973878.35103175.466051.60724833l.261.975c.1424732.53319233-.1739486 1.08100037-.707 1.224-.084832.02252742-.1722278.0339561-.26.034-.4524951-.00051815-.8482565-.30482376-.965-.742l-.261-.974c-.1424732-.53319233.1739486-1.08100037.707-1.224zm-10.464 13.637c0-.5522847.4477153-1 1-1h1.009c.5522847 0 1 .4477153 1 1s-.4477153 1-1 1h-1.009c-.5522847 0-1-.4477153-1-1zm2.68 4.1-.974.261c-.0846917.0233384-.1721515.0351119-.26.035-.503246.0016323-.9293034-.3709697-.994751-.8699445-.0654476-.4989747.2501069-.9688497.736751-1.0970555l.975-.261c.5324122-.1398151 1.0777088.1769484 1.2200053.7087028.1422966.5317543-.1719204 1.0785222-.7030053 1.2232972zm.707-6.976c-.1167435.4371762-.5125049.7414819-.965.742-.0875194.0001076-.1746483-.0116665-.259-.035l-.975-.261c-.5335071-.1430418-.8500418-.6914929-.707-1.225s.6914929-.8500418 1.225-.707l.974.262c.5330514.1429996.8494732.6908077.707 1.224zm1.111-2.679c-.1326158.2299444-.3512138.3977275-.607628.4663798-.2564142.0686522-.5296031.0325399-.759372-.1003798l-.874-.5c-.4785547-.2761424-.6426423-.8879453-.3665-1.3665.2761424-.47855471.8879453-.64264235 1.3665-.3665l.874.505c.4762377.2756935.6402451.8843533.367 1.362zm1.764-2.3c-.3904999.39038194-1.0235001.39038194-1.414 0l-.713-.713c-.2599566-.25107447-.3642126-.62287789-.2726972-.97250732.0915155-.34962944.3645604-.6226744.7141899-.71418984.3496294-.09151544.7214328.01274058.9725073.27269716l.713.713c.3903819.39049985.3903819 1.02350015 0 1.414zm.936-2.132-.5-.874c-.1814844-.30957042-.1831833-.69264947-.0044519-1.00381742.1787315-.31116795.5104885-.50271357.8693336-.50192468.3588451.00078888.6897567.19379132.8671183.5057421l.5.874c.1814844.30957042.1831833.69264947.0044519 1.00381742-.1787315.31116795-.5104885.50271357-.8693336.50192468-.3588451-.00078888-.6897567-.19379132-.8671183-.5057421zm1.212 15.7c-.3940152-.3940476-.3939978-1.032896.000039-1.426922s1.0328852-.394026 1.426922 0 .3940542 1.0328744.000039 1.426922c-.1898889.1885806-.4469173.2939988-.7145356.2930611s-.5239017-.1081545-.7124644-.2980611zm3.54 6.247-.261.974c-.1163643.437573-.5122193.7423608-.965.743-.087815-.0003814-.1752101-.0121461-.26-.035-.5330514-.1429996-.8494732-.6908077-.707-1.224l.261-.975c.144775-.5310849.6915429-.8453019 1.2232972-.7030053.5317544.1422965.8485179.6875931.7087028 1.2200053zm.741-9.1c-.3940476.3940152-1.032896.3939978-1.426922-.000039s-.394026-1.0328852 0-1.426922 1.0328744-.3940542 1.426922-.000039c.3900944.3933498.3900944 1.0276502 0 1.421zm2.427 10.264c0 .5522847-.4477153 1-1 1s-1-.4477153-1-1v-1.015c0-.5522847.4477153-1 1-1s1 .4477153 1 1zm.427-11.691c-.3940152-.3940476-.3939978-1.032896.000039-1.426922s1.0328852-.394026 1.426922 0 .3940542 1.0328744.000039 1.426922c-.1900211.1884487-.4471242.2936874-.7147427.2925622s-.5238276-.1085223-.7122573-.2985622zm2.228 12.204c-.0847899.0228539-.172185.0346186-.26.035-.4527807-.0006392-.8486357-.305427-.965-.743l-.26-.974c-.1232096-.5258077.1933234-1.0544497.7149995-1.1941217.5216762-.139672 1.0600041.1600923 1.2160005.6771217l.261.975c.1424732.5331923-.1739486 1.0810004-.707 1.224zm.626-16.492c-.3941934.3936088-1.0327846.3932928-1.4265883-.0007058s-.3938037-1.0325898 0-1.4265884 1.0323949-.3943146 1.4265883-.0007058c.1895482.1892671.2960589.4461371.2960589.714s-.1065107.5247329-.2960589.714zm2.774 15.081c-.1516028.0888854-.3242622.1355035-.5.135-.3576137.0003484-.6881932-.1902972-.867-.5l-.5-.874c-.1786328-.3095706-.1785423-.6909252.0002373-1.000411.1787796-.3094859.5090876-.5000848.8665-.5s.6876299.1908404.8662627.500411l.505.874c.1318712.2301947.1668679.503356.0972873.7593601-.0695806.2560042-.2380356.4738684-.4682873.6056399zm2.924-2.243c-.3904999.3903819-1.0235001.3903819-1.414 0l-.713-.714c-.2599566-.2510745-.3642126-.6228779-.2726972-.9725073.0915155-.3496295.3645604-.6226744.7141899-.7141899.3496294-.0915154.7214328.0127406.9725073.2726972l.713.714c.3914888.3893946.3932795 1.0223967.004 1.414zm2.244-2.924c-.2761504.4782682-.8877197.6421293-1.366.366l-.874-.5c-.3095706-.1786328-.5003262-.5088503-.500411-.8662627s.1905141-.6877204.5-.8665c.3094858-.1787796.6908404-.1788701 1.000411-.0002373l.874.5c.2306239.131945.3992564.3502469.4686746.606719.0694182.2564722.0339144.5300267-.0986746.760281zm1.41-3.4c-.116647.4368178-.5118768.74103-.964.742-.0878485.0001119-.1753083-.0116616-.26-.035l-.975-.261c-.3451186-.0925318-.6146562-.3621532-.7070806-.7073006-.0924244-.3451473.0063059-.7133845.259-.966.2526942-.2526156.620962-.3512312.9660806-.2586994l.974.261c.5326816.1412778.8506581.6868914.711 1.22zm-.518-2.654h-1.01c-.5522847 0-1-.4477153-1-1s.4477153-1 1-1h1.01c.5522847 0 1 .4477153 1 1s-.4477153 1-1 1z"/>
        </g>
    </g>
</svg>