<svg id="Capa_1" enable-background="new 0 0 512 512" viewBox="0 0 512 512" height="200px" width="200px"
    xmlns="http://www.w3.org/2000/svg">
    <g>
        <path style="fill: rgb(245,0,182);" d="m286.959 390.864h-61.918c-4.142 0-7.5 3.357-7.5 7.5s3.358 7.5 7.5 7.5h61.918c4.143 0 7.5-3.357 7.5-7.5 0-4.142-3.358-7.5-7.5-7.5z"/>
        <path style="fill: rgb(245,0,182);" d="m286.959 424.862h-61.918c-4.142 0-7.5 3.357-7.5 7.5s3.358 7.5 7.5 7.5h61.918c4.143 0 7.5-3.357 7.5-7.5s-3.358-7.5-7.5-7.5z"/>
        <path style="fill: rgb(245,0,182);" d="m253.055 349.259h-48.728c-8.56 0-15.523 6.964-15.523 15.523v99.487c0 8.56 6.964 15.523 15.523 15.523h103.345c8.56 0 15.523-6.964 15.523-15.523v-99.487c0-8.56-6.964-15.523-15.523-15.523h-21.719c-4.143 0-7.5 3.357-7.5 7.5s3.357 7.5 7.5 7.5h21.719c.289 0 .523.234.523.523v99.487c0 .289-.234.523-.523.523h-103.345c-.288 0-.523-.234-.523-.523v-99.487c0-.289.235-.523.523-.523h48.728c4.143 0 7.5-3.357 7.5-7.5s-3.357-7.5-7.5-7.5z"/>
        <path style="fill: rgb(245,0,182);" d="m339.251 269.981c-1.382-3.905-5.668-5.952-9.572-4.568-3.905 1.382-5.95 5.668-4.568 9.572 7.43 20.992 11.196 42.925 11.196 65.19v144.266c0 6.925-5.634 12.559-12.559 12.559h-135.496c-6.925 0-12.559-5.634-12.559-12.559v-35.736c0-4.143-3.358-7.5-7.5-7.5s-7.5 3.357-7.5 7.5v35.736c0 15.196 12.363 27.559 27.559 27.559h135.495c15.196 0 27.559-12.362 27.559-27.559v-144.265c0-23.975-4.055-47.592-12.055-70.195z"/>
        <path style="fill: rgb(245,0,182);" d="m295.215 184.516c-4.648-8.393-7.105-17.902-7.105-27.499v-102.927c8.111-.501 14.562-7.24 14.562-15.475v-23.092c-.001-8.559-6.965-15.523-15.526-15.523h-62.293c-8.56 0-15.523 6.964-15.523 15.523v23.092c0 8.235 6.45 14.974 14.561 15.475v102.927c0 9.597-2.457 19.105-7.105 27.5l-29.759 53.745c-17.227 31.11-26.333 66.352-26.333 101.914v75.843c0 4.143 3.358 7.5 7.5 7.5s7.5-3.357 7.5-7.5v-75.843c0-33.027 8.457-65.756 24.455-94.649l9.304-16.802 9.66 8.252c.016 20.327 16.557 36.859 36.888 36.859 20.33 0 36.871-16.532 36.887-36.859l9.66-8.252 9.304 16.803c1.963 3.546 6.645 4.895 10.194 2.929 3.624-2.007 4.935-6.571 2.929-10.194zm-71.879 19.135 7.474 6.384c-3.198 2.996-5.863 6.551-7.838 10.511l-6.104-5.214zm49.773-149.512v24.521h-34.219v-24.521zm-17.109 145.921c-4.046 0-7.937.664-11.582 1.873l-13.688-11.693c5.34-10.228 8.16-21.675 8.16-33.224v-23.483h34.219v23.483c0 11.549 2.821 22.996 8.16 33.223l-13.688 11.693c-3.645-1.208-7.536-1.872-11.581-1.872zm-17.11-81.527v-24.874h34.219v24.874zm17.11 140.303c-12.069 0-21.888-9.819-21.888-21.889 0-.805.047-1.599.132-2.381.002-.019.005-.039.007-.058 1.217-10.925 10.504-19.448 21.749-19.448 12.069 0 21.888 9.818 21.888 21.888-.001 12.069-9.819 21.888-21.888 21.888zm33.028-38.289c-1.974-3.96-4.639-7.515-7.837-10.511l7.474-6.384 6.468 11.68zm-64.699-205.024c0-.289.235-.523.523-.523h62.293c.289 0 .524.234.524.523v23.092c0 .289-.235.523-.524.523h-62.293c-.289 0-.523-.234-.523-.523z"/>
    </g>
</svg>