<?xml version="1.0" encoding="iso-8859-1"?>
<!-- Generator: Adobe Illustrator 19.0.0, SVG Export Plug-In . SVG Version: 6.00 Build 0)  -->
<svg version="1.1" id="Capa_1"
	xmlns="http://www.w3.org/2000/svg"
	xmlns:xlink="http://www.w3.org/1999/xlink" x="0px" y="0px" viewBox="0 0 512.001 512.001" style="enable-background:new 0 0 512.001 512.001;" xml:space="preserve" width="200px" height="200px">
	<g>
		<g>
			<path  style="fill: rgb(245,0,182);" d="M197.76,384.156h-61.209c-4.142,0-7.499,3.358-7.499,7.499c0,4.142,3.358,7.499,7.499,7.499h61.209
			c4.142,0,7.499-3.358,7.499-7.499S201.901,384.156,197.76,384.156z"/>
		</g>
	</g>
	<g>
		<g>
			<path  style="fill: rgb(245,0,182);" d="M228.903,170.957H105.407c-11.995,0-21.753,9.758-21.753,21.753v225.478c0,8.103,6.592,14.695,14.695,14.695h137.613
			v-0.001c8.102,0,14.694-6.592,14.694-14.695V192.71C250.656,180.715,240.898,170.957,228.903,170.957z M98.653,192.71
			c0-3.724,3.03-6.754,6.754-6.754h123.497c3.724,0,6.754,3.03,6.754,6.754v111.869H98.653V192.71z M235.658,417.884H98.653v-59.642
			h137.005V417.884z M235.658,343.243H98.653v-23.665h137.005V343.243z"/>
		</g>
	</g>
	<g>
		<g>
			<path  style="fill: rgb(245,0,182);" d="M167.155,205.114c-24.44,0-44.324,19.884-44.324,44.324s19.884,44.325,44.324,44.325s44.324-19.884,44.324-44.325
			S191.596,205.114,167.155,205.114z M167.155,278.764c-16.17,0-29.326-13.156-29.326-29.326s13.156-29.326,29.326-29.326
			c16.17,0,29.326,13.156,29.326,29.326S183.325,278.764,167.155,278.764z"/>
		</g>
	</g>
	<g>
		<g>
			<path  style="fill: rgb(245,0,182);" d="M234.601,116.216c-18.411-2.277-32.302-17.952-32.37-36.489c4.517-2.061,7.671-6.61,7.671-11.89V13.073
			C209.901,5.865,204.037,0,196.829,0h-59.347c-7.208,0-13.073,5.865-13.073,13.073v54.764c0,5.281,3.154,9.83,7.671,11.891
			c-0.068,18.537-13.96,34.211-32.371,36.489c-26.389,3.265-46.29,25.779-46.29,52.37v44.027c0,4.142,3.358,7.499,7.499,7.499
			s7.499-3.358,7.499-7.499v-44.027c0-19.022,14.228-35.128,33.101-37.48c6.979-0.647,124.232-0.647,131.27,0
			c18.874,2.35,33.104,18.457,33.104,37.48v315.971c0,6.862-5.583,12.444-12.445,12.444H80.863c-6.862,0-12.445-5.583-12.445-12.444
			v-237.05c0-4.142-3.358-7.499-7.499-7.499c-4.141,0-7.499,3.358-7.499,7.499v237.05c0,15.132,12.311,27.443,27.444,27.443h172.584
			c15.133,0,27.444-12.311,27.444-27.443V168.586C280.891,141.995,260.991,119.481,234.601,116.216z M139.408,14.999h55.495v12.037
			h-55.495V14.999z M139.408,42.035h55.495v23.876h-0.174h-55.146h-0.175V42.035z M132.406,115.714
			c8.827-9.103,14.321-21.384,14.659-34.805h40.18c0.338,13.421,5.832,25.701,14.659,34.805
			C180.799,115.604,153.512,115.604,132.406,115.714z"/>
		</g>
	</g>
	<g>
		<g>
			<path  style="fill: rgb(245,0,182);" d="M454.77,355.749c-2.744-2.996-6.648-4.715-10.711-4.715H328.466c-4.063,0-7.966,1.719-10.71,4.714
			c-2.744,2.996-4.113,7.036-3.757,11.083l11.063,128.039c0.429,4.86,2.663,9.113,6.01,12.139c3.315,3.109,7.775,4.991,12.689,4.991
			h85.004c9.671,0,17.605-7.265,18.455-16.899l11.307-128.27C458.883,362.784,457.514,358.745,454.77,355.749z M432.043,493.553
			c-0.162,1.834-1.672,3.218-3.514,3.218h-85.011c-0.872,0-1.663-0.318-2.278-0.839c-0.548-0.562-0.918-1.303-0.992-2.149
			l-0.675-7.652h93.124L432.043,493.553z M443.54,366.032l-1.576,17.874h-60.169c-4.142,0-7.499,3.358-7.499,7.499
			s3.358,7.499,7.499,7.499h58.847l-6.361,72.158c-0.223,0.033-0.446,0.068-0.693,0.068H338.46c-0.075,0-0.138-0.017-0.211-0.021
			l-6.365-72.206h15.018c4.142,0,7.499-3.358,7.499-7.499s-3.358-7.499-7.499-7.499h-16.34l-1.576-17.874L443.54,366.032
			L443.54,366.032z"/>
		</g>
	</g>
	<g>
	</g>
	<g>
	</g>
	<g>
	</g>
	<g>
	</g>
	<g>
	</g>
	<g>
	</g>
	<g>
	</g>
	<g>
	</g>
	<g>
	</g>
	<g>
	</g>
	<g>
	</g>
	<g>
	</g>
	<g>
	</g>
	<g>
	</g>
	<g>
	</g>
</svg>
