<svg id="Layer_1" viewBox="0 0 512 512" height="100px" width="100px"
    xmlns="http://www.w3.org/2000/svg" data-name="Layer 1">
    <path style="fill: rgb(245,0,182);" d="m368.069 76.5-154.713 154.711-.083.224a118.511 118.511 0 0 1 -67.027 68.732l-3.074 1.229-78.986 78.986a182.744 182.744 0 0 0 67.432 67.433l78.982-78.986 1.229-3.076a118.516 118.516 0 0 1 68.731-67.026l.225-.083 154.715-154.714a162.741 162.741 0 0 0 -67.431-67.43zm-22.451 61.383-79.195 79.2a5 5 0 0 1 -7.07-7.071l79.195-79.2a5 5 0 0 1 7.07 7.071zm16.473-16.472-3.037 3.037a5 5 0 0 1 -7.071-7.071l3.038-3.037a5 5 0 1 1 7.07 7.071z"/>
    <path style="fill: rgb(245,0,182);" d="m53.316 381.478-27.374 27.373a182.5 182.5 0 0 0 77.206 77.207l27.374-27.374a192.86 192.86 0 0 1 -77.206-77.206z"/>
    <path style="fill: rgb(245,0,182);" d="m417.741 26.827-17.456 17.456a172.933 172.933 0 0 1 67.432 67.432l17.456-17.456a162.762 162.762 0 0 0 -67.432-67.432z"/>
    <path style="fill: rgb(245,0,182);" d="m392.9 51.664-17.45 17.453a172.929 172.929 0 0 1 67.432 67.433l17.455-17.45a162.744 162.744 0 0 0 -67.437-67.436z"/>
</svg>