<?xml version="1.0" encoding="iso-8859-1"?>
<!-- Generator: Adobe Illustrator 19.0.0, SVG Export Plug-In . SVG Version: 6.00 Build 0)  -->
<svg version="1.1" id="Layer_1" xmlns="http://www.w3.org/2000/svg" xmlns:xlink="http://www.w3.org/1999/xlink" x="0px" y="0px" height="100px" width="100px"
	 viewBox="0 0 512 512" style="enable-background:new 0 0 512 512;" xml:space="preserve">
<g>
	<g>
		<path style="fill: rgb(245,0,182);" d="M494.085,17.916C482.531,6.363,467.114,0,450.674,0s-31.858,6.363-43.411,17.916L269.724,155.455
			c-7.727,7.727-7.727,20.299,0,28.026l9.86,9.86l-43.366,43.367l-5.05-5.051c-2.978-2.977-7.803-2.977-10.78,0L12.419,439.629
			c-8.008,8.006-12.418,18.653-12.418,29.976c0,11.325,4.41,21.97,12.417,29.977C20.425,507.59,31.07,512,42.395,512
			c11.323,0,21.969-4.41,29.977-12.417l27.728-27.729c2.977-2.977,2.977-7.803,0-10.779c-2.977-2.976-7.802-2.978-10.78,0
			l-27.727,27.729c-5.129,5.128-11.946,7.952-19.199,7.952s-14.07-2.824-19.199-7.952c-5.127-5.129-7.951-11.946-7.951-19.199
			c0-7.252,2.823-14.069,7.952-19.198l202.58-202.581l38.396,38.396L123.441,426.955c-2.977,2.977-2.977,7.803,0,10.779
			c2.977,2.976,7.802,2.977,10.78,0l146.122-146.122c1.429-1.429,2.232-3.368,2.232-5.389s-0.803-3.96-2.232-5.389l-5.051-5.051
			l43.367-43.366l9.861,9.861c3.734,3.733,8.71,5.789,14.013,5.789s10.279-2.056,14.014-5.79l137.538-137.538
			c11.553-11.553,17.915-26.97,17.915-43.41C511.999,44.886,505.639,29.47,494.085,17.916z M264.573,264.943l-17.515-17.515
			l42.863-42.863l17.515,17.516L264.573,264.943z M483.305,93.958L345.767,231.496c-0.855,0.855-2.003,1.325-3.235,1.325
			s-2.38-0.471-3.234-1.324l-58.795-58.795c-1.754-1.753-1.754-4.715,0-6.468L418.043,28.696
			c8.673-8.674,20.263-13.452,32.631-13.452c12.369,0,23.958,4.778,32.631,13.452c8.674,8.674,13.451,20.263,13.451,32.631
			S491.979,85.284,483.305,93.958z"/>
	</g>
</g>
<g>
	<g>
		<path style="fill: rgb(245,0,182);" d="M446.337,37.369c-2.978-2.977-7.803-2.977-10.78,0l-120.52,120.52c-2.977,2.977-2.977,7.803,0,10.779
			c1.489,1.488,3.44,2.233,5.39,2.233c1.95,0,3.901-0.744,5.39-2.233l120.519-120.52C449.314,45.172,449.314,40.346,446.337,37.369z
			"/>
	</g>
</g>
<g>
	<g>
		<path style="fill: rgb(245,0,182);" d="M474.633,65.664c-2.977-2.978-7.802-2.978-10.781-0.001l-120.52,120.521c-2.977,2.977-2.977,7.803,0,10.779
			c1.489,1.488,3.439,2.233,5.39,2.233c1.95,0,3.901-0.744,5.39-2.233l120.52-120.52C477.609,73.466,477.609,68.64,474.633,65.664z"
			/>
	</g>
</g>
<g>
</g>
<g>
</g>
<g>
</g>
<g>
</g>
<g>
</g>
<g>
</g>
<g>
</g>
<g>
</g>
<g>
</g>
<g>
</g>
<g>
</g>
<g>
</g>
<g>
</g>
<g>
</g>
<g>
</g>
</svg>
