<svg viewBox="0 0 38 60" height="200px" width="200px"
    xmlns="http://www.w3.org/2000/svg">
    <g style="fill: rgb(245,0,182);" id="Page-1" fill="none" fill-rule="evenodd">
        <g style="fill: rgb(245,0,182);" id="019---Rum" fill="rgb(0,0,0)" fill-rule="nonzero">
            <path style="fill: rgb(245,0,182);" id="Shape" d="m12.046 17.028-8.708 5.359c-2.06817305 1.2774594-3.33029841 3.5321189-3.338 5.963v24.65c.00440864 3.8641657 3.13583434 6.9955914 7 7h24c3.8641657-.0044086 6.9955914-3.1358343 7-7v-24.65c-.0073873-2.4299236-1.2687661-4.6838441-3.336-5.961l-8.709-5.36c-.5944454-.3642763-.9562965-1.0118193-.955-1.709v-2.32c1.1045695 0 2-.8954305 2-2v-4c0-1.1045695-.8954305-2-2-2h-2.047l.9-2.257c.246308-.61555622.1715564-1.3131669-.1995804-1.8625616-.3711369-.54939469-.9904147-.87915733-1.6534196-.8804384h-6c-.663713-.0000445-1.2842143.32917591-1.656297.87878436-.3720827.54960846-.4472724 1.24800258-.200703 1.86421564l.904 2.257h-2.047c-1.1045695 0-2 .8954305-2 2v4c0 1.1045695.8954305 2 2 2v2.32c.0023379.6969302-.3593653 1.3445077-.954 1.708zm23.954 32.972h-30v-18h30zm-32 0h-2v-18h2zm27 8h-24c-2.76005315-.0033061-4.99669388-2.2399468-5-5v-1h2v1c0 1.6568542 1.34314575 3 3 3 .55228475 0 1-.4477153 1-1s-.44771525-1-1-1-1-.4477153-1-1v-1h30v1c-.0033061 2.7600532-2.2399468 4.9966939-5 5zm-15-56h6l-1.2 3h-3.6zm-2.9 16.73c1.1851052-.7271265 1.9052622-2.0196189 1.9-3.41v-2.32h3c.5522847 0 1-.4477153 1-1s-.4477153-1-1-1h-5v-4h12v4h-3c-.5522847 0-1 .4477153-1 1s.4477153 1 1 1h1v2.32c-.0041548 1.3916343.7179664 2.6846292 1.905 3.411l8.712 5.362c1.4766581.9118039 2.3777533 2.5215237 2.383 4.257v1.65h-30v-1.65c.00120426-.3452245.18038877-.6654129.474-.847l8.05-4.954c.3251596-.1769361.5259734-.5190251.5219718-.8891861s-.2121639-.7078288-.5410726-.8776942c-.3289087-.1698653-.7247484-.144135-1.0288992.0668803l-8.048 4.951c-.88498509.5458232-1.42505528 1.5102342-1.428 2.55v1.65h-2v-1.65c.00552228-1.7361784.90741776-3.3463549 2.385-4.258z"/>
            <path style="fill: rgb(245,0,182);" id="Shape" d="m16.437 19.851c.4700026.2898982 1.0860201.1439522 1.376-.326.6397878-1.0407211 1.0331449-2.2139516 1.15-3.43.0458261-.3617268-.1088604-.7197248-.4036829-.9342616-.2948225-.2145367-.6830449-.2516032-1.0131375-.0967317s-.5497283.4771302-.5731796.8409933c-.0853041.9116773-.3803265 1.7912684-.862 2.57-.2898982.4700026-.1439522 1.0860201.326 1.376z"/>
            <path style="fill: rgb(245,0,182);" id="Shape" d="m9 43c.55228475 0 1-.4477153 1-1v-2h.465l1.7 2.555c.1982824.297245.5400812.4661283.8966441.4430332s.6737195-.2346599.832-.555.1336383-.7007882-.0646441-.9980332l-1.266-1.9c1.144112-.6991976 1.6833502-2.0741847 1.3195738-3.3647414-.3637764-1.2905566-1.5417278-2.1815099-2.8825738-2.1802586h-1c-1.1045695 0-2 .8954305-2 2v6c0 .5522847.44771525 1 1 1zm1-7h1c.5522847 0 1 .4477153 1 1s-.4477153 1-1 1h-1z"/>
            <path style="fill: rgb(245,0,182);" id="Shape" d="m19 43c1.6568542 0 3-1.3431458 3-3v-5c0-.5522847-.4477153-1-1-1s-1 .4477153-1 1v5c0 .5522847-.4477153 1-1 1s-1-.4477153-1-1v-5c0-.5522847-.4477153-1-1-1s-1 .4477153-1 1v5c0 1.6568542 1.3431458 3 3 3z"/>
            <path style="fill: rgb(245,0,182);" id="Shape" d="m25 43c.5522847 0 1-.4477153 1-1v-4.527l.168.252c.1961648.2622542.5044975.4166681.832.4166681s.6358352-.1544139.832-.4166681l.168-.252v4.527c0 .5522847.4477153 1 1 1s1-.4477153 1-1v-6.639c-.0002542-.5995013-.3927509-1.128235-.9665173-1.301999-.5737665-.173764-1.1936616.0483689-1.5264827.546999l-.507.761-.507-.761c-.3328211-.4986301-.9527162-.720763-1.5264827-.546999-.5737664.173764-.9662631.7024977-.9665173 1.301999v6.639c0 .5522847.4477153 1 1 1z"/>
            <path style="fill: rgb(245,0,182);" id="Shape" d="m29 45h-11c-.5522847 0-1 .4477153-1 1s.4477153 1 1 1h11c.5522847 0 1-.4477153 1-1s-.4477153-1-1-1z"/>
            <path style="fill: rgb(245,0,182);" id="Shape" d="m9 45c-.55228475 0-1 .4477153-1 1s.44771525 1 1 1h5c.5522847 0 1-.4477153 1-1s-.4477153-1-1-1z"/>
        </g>
    </g>
</svg>