<?xml version="1.0" encoding="iso-8859-1"?>
<!-- Generator: Adobe Illustrator 19.0.0, SVG Export Plug-In . SVG Version: 6.00 Build 0)  -->
<svg version="1.1" id="Capa_1" height="100px" width="100px"
	xmlns="http://www.w3.org/2000/svg"
	xmlns:xlink="http://www.w3.org/1999/xlink" x="0px" y="0px" viewBox="0 0 512 512" style="enable-background:new 0 0 512 512;" xml:space="preserve">
	<g>
		<g>
			<path style="fill: rgb(245,0,182);" d="M363.27,241.062c-2.962-6.813-8.401-12.064-15.314-14.787L305.21,209.44c-6.914-2.722-14.475-2.589-21.283,0.374
			c-6.813,2.962-12.065,8.401-14.787,15.314l-6.121,15.544l-15.544-6.121c-14.27-5.618-30.451,1.417-36.071,15.688l-16.835,42.748
			c-5.619,14.27,1.417,30.451,15.688,36.071l42.747,16.835c3.321,1.308,6.783,1.943,10.211,1.943c7.331,0,14.513-2.906,19.855-8.356
			c2.899-2.958,2.852-7.707-0.106-10.607c-2.958-2.899-7.706-2.851-10.607,0.106c-3.613,3.687-9.052,4.849-13.856,2.956
			l-42.746-16.834c-6.573-2.589-9.816-10.044-7.226-16.617l16.834-42.747c2.589-6.573,10.046-9.815,16.617-7.226l15.544,6.121
			l-5.219,13.243c-5.619,14.27,1.418,30.451,15.688,36.071l42.747,16.834c8.281,2.772,16.266,1.843,21.283-0.373
			c6.796-3.002,12.065-8.401,14.787-15.314l16.835-42.747C366.366,255.434,366.233,247.875,363.27,241.062z M349.686,256.85
			l-16.835,42.747c-1.254,3.184-3.673,5.689-6.811,7.054c-3.138,1.364-6.62,1.426-9.806,0.171l-42.747-16.834
			c-6.572-2.589-9.815-10.044-7.226-16.617l16.836-42.747c1.254-3.184,3.673-5.689,6.811-7.054c3.139-1.365,6.619-1.426,9.806-0.172
			l42.747,16.835c3.185,1.254,5.689,3.673,7.055,6.811C350.879,250.183,350.941,253.665,349.686,256.85z"/>
		</g>
	</g>
	<g>
		<g>
			<path style="fill: rgb(245,0,182);" d="M287.54,163.152c-9.728-5.082-22.763-8.499-36.709-9.623c-13.947-1.123-27.361,0.167-37.774,3.628
			c-16.891,5.615-20.093,14.899-20.498,19.933s1.271,14.71,17.047,22.953c9.727,5.083,22.763,8.5,36.708,9.623
			c3.284,0.265,22.525,1.183,37.774-3.627c16.976-5.355,20.094-14.899,20.498-19.933
			C304.992,181.072,303.316,171.395,287.54,163.152z M247.516,194.714c-34.69-1.651-40.122-14.98-40.006-16.419
			c0.272-3.375,17.501-11.131,42.117-9.813c24.616,1.318,40.312,12.614,40.006,16.42
			C289.518,186.341,282.206,196.364,247.516,194.714z"/>
		</g>
	</g>
	<g>
		<g>
			<path style="fill: rgb(245,0,182);" d="M183.932,213.891c-4.516-2.263-14.115-4.334-27.669,7.203c-8.357,7.112-16.41,17.919-22.676,30.428
			c-6.266,12.509-10.099,25.429-10.792,36.381c-1.124,17.765,6.283,24.212,10.799,26.475c1.791,0.897,4.381,1.765,7.701,1.765
			c5.05,0,11.79-2.007,19.968-8.969c8.357-7.113,16.41-17.919,22.676-30.428s10.099-25.429,10.792-36.381
			C195.854,222.599,188.447,216.152,183.932,213.891z M170.527,270.027c-11.984,23.924-26.799,32.651-30.215,30.939
			c-3.414-1.71-5.298-18.8,6.686-42.725c11.022-22,24.435-31.146,29.177-31.146c0.415,0,0.764,0.07,1.038,0.208
			C180.627,229.013,182.513,246.103,170.527,270.027z"/>
		</g>
	</g>
	<g>
		<g>
			<path style="fill: rgb(245,0,182);" d="M501.435,39.217l-28.651-28.651c-14.089-14.089-37.014-14.089-51.103,0l-10.549,10.549c-2.929,2.929-2.929,7.678,0,10.607
			c2.93,2.929,7.678,2.929,10.608,0l10.549-10.549c8.239-8.239,21.647-8.239,29.887,0l28.651,28.651c8.24,8.24,8.24,21.647,0,29.887
			l-25.948,25.948L387.531,28.31c-14.839-14.837-30.858-5.495-46.351,3.541c-3.775,2.202-7.68,4.479-11.791,6.601
			c-15.242,7.866-33.513,0.038-37.45-1.834c-7.665-7.198-17.65-11.157-28.273-11.157c-11.068,0-21.448,4.285-29.229,12.066
			c-14.068,14.068-15.853,35.836-5.361,51.862c-32.877,32.8-92.605,96.561-153.806,182.772c-2.397,3.377-1.679,8.169,1.774,10.458
			c4.549,3.015,8.996,0.286,10.458-1.774c60.201-84.802,118.928-147.623,151.564-180.232l172.322,172.323
			c-50.548,50.637-151.035,141.89-287.833,220.639c-10.1,5.812-22.918,4.109-31.172-4.144L22.57,419.617
			c-8.253-8.253-9.958-21.072-4.144-31.172c15.308-26.592,32.023-53.36,49.68-79.562c2.315-3.435,1.407-8.096-2.028-10.412
			c-3.434-2.315-8.096-1.407-10.412,2.028c-17.855,26.494-34.758,53.565-50.242,80.462c-9.19,15.966-6.501,36.223,6.538,49.263
			l69.814,69.814c7.863,7.863,18.35,11.963,28.94,11.962c6.969,0,13.986-1.776,20.322-5.424
			c138.819-79.912,240.664-172.578,291.574-223.65c6.845,4.48,14.737,6.723,22.63,6.723c10.585,0,21.17-4.029,29.23-12.088
			c15.801-15.803,16.098-41.314,0.913-57.496c-1.886-3.968-9.699-22.222-1.837-37.455c2.121-4.111,4.398-8.015,6.601-11.792
			c9.035-15.492,18.378-31.511,3.54-46.348l-8.203-8.203l25.948-25.948C515.522,76.231,515.522,53.306,501.435,39.217z
			 M463.866,266.955c-10.269,10.268-26.978,10.268-37.243,0L245.046,85.378c-4.947-4.947-7.671-11.561-7.671-18.621
			s2.725-13.674,7.672-18.621c4.947-4.947,11.561-7.672,18.621-7.672s13.674,2.725,18.62,7.672l181.577,181.576
			C474.133,239.979,474.133,256.686,463.866,266.955z M467.192,163.261c-2.298,3.94-4.674,8.015-6.974,12.469
			c-4.164,8.068-5.356,16.431-5.078,24.041L312.224,56.856c7.611,0.279,15.975-0.908,24.045-5.074
			c4.455-2.299,8.528-4.675,12.469-6.973c16.938-9.878,22.354-11.723,28.186-5.891l96.16,96.16
			C478.325,140.319,478.182,144.418,467.192,163.261z"/>
		</g>
	</g>
	<g>
		<g>
			<path style="fill: rgb(245,0,182);" d="M193.435,367.995c-4.979-17.09-14.136-20.637-19.151-21.23c-3.79-0.447-10.268,0.196-17.015,7.195l-4.654-12.233
			c-5.454-14.335-21.554-21.56-35.886-16.106l-42.94,16.335c-14.334,5.453-21.559,21.551-16.106,35.886l16.336,42.94
			c4.219,11.091,14.81,17.925,26.027,17.925c3.28,0,6.616-0.585,9.86-1.819l29.712-11.304c0.51,4.12,1.279,8.01,2.314,11.563
			c4.979,17.09,13.991,20.321,19.151,21.23c5.161,0.909,15.753-2.481,23.575-16.177c5.443-9.53,9.346-22.429,10.99-36.322
			C197.29,391.985,196.504,378.531,193.435,367.995z M139.719,399.262c-0.42,3.553-0.679,7.077-0.784,10.532l-34.364,13.073
			c-3.198,1.217-6.678,1.116-9.803-0.286c-3.122-1.401-5.512-3.935-6.729-7.133l-16.336-42.94
			c-2.512-6.603,0.816-14.019,7.419-16.531l42.94-16.336c3.199-1.215,6.68-1.113,9.803,0.287c3.122,1.401,5.512,3.935,6.729,7.133
			l8.681,22.817C143.625,378.341,140.992,388.499,139.719,399.262z M180.75,404.116c-3.05,26.586-14.129,39.819-17.905,39.363
			c-3.792-0.448-11.372-15.881-8.228-42.456c3.091-26.138,13.756-39.374,17.713-39.374
			C172.396,361.649,185.183,365.475,180.75,404.116z"/>
		</g>
	</g>
	<g>
	</g>
	<g>
	</g>
	<g>
	</g>
	<g>
	</g>
	<g>
	</g>
	<g>
	</g>
	<g>
	</g>
	<g>
	</g>
	<g>
	</g>
	<g>
	</g>
	<g>
	</g>
	<g>
	</g>
	<g>
	</g>
	<g>
	</g>
	<g>
	</g>
</svg>
