<svg height="100px" width="100px" id="Layer_1" viewBox="0 0 512 512"
    xmlns="http://www.w3.org/2000/svg" data-name="Layer 1">
    <path style="fill: rgb(245,0,182);" d="m29.548 207.384a16.2 16.2 0 0 0 12.358 29.948l70.284-29-12.357-29.949z"/>
    <path style="fill: rgb(245,0,182);" d="m306.358 36.364c-31.284 12.909-53.549 43.257-56.724 77.315a5 5 0 0 1 -3.072 4.158l-137.485 56.731 12.357 29.948 301.488-124.4c-21.385-42.307-72.559-61.916-116.564-43.752zm-33.258 69.836a70.079 70.079 0 0 0 -1.558 9.523 5 5 0 0 1 -4.973 4.536c-.155 0-.312-.008-.47-.022a5 5 0 0 1 -4.514-5.443 80.044 80.044 0 0 1 1.781-10.885 5 5 0 1 1 9.734 2.291zm87.86-56.972a5 5 0 0 1 -5.927 3.856 68.155 68.155 0 0 0 -40.283 3.616 70.742 70.742 0 0 0 -33.5 29.317 5 5 0 0 1 -8.6-5.1 80.817 80.817 0 0 1 38.29-33.461 78.114 78.114 0 0 1 46.16-4.156 5 5 0 0 1 3.857 5.927z"/>
    <path style="fill: rgb(245,0,182);" d="m460.706 97.294 4.544-16.2a36 36 0 0 1 -34.75-32.904l-15.345 3.648a100.962 100.962 0 0 1 18.385 27.295 100.975 100.975 0 0 1 27.166 18.161z"/>
    <path style="fill: rgb(245,0,182);" d="m274.756 470.554a16.2 16.2 0 1 0 29.915 12.437l29.391-70.683-29.916-12.438z"/>
    <path style="fill: rgb(245,0,182);" d="m466.417 19.023a26.06 26.06 0 1 0 18.427 7.633 25.889 25.889 0 0 0 -18.427-7.633zm10.18 36.24a14.4 14.4 0 1 1 4.217-10.18 14.3 14.3 0 0 1 -4.214 10.18z"/>
    <path style="fill: rgb(245,0,182);" d="m459.2 110.016a91.149 91.149 0 0 0 -26.2-20.052l-125.014 300.673 29.914 12.438 56.9-136.854a5 5 0 0 1 4.166-3.06c34.067-3.083 64.475-25.267 77.468-56.516 13.775-33.128 6.105-70.378-16.59-95.927a4.931 4.931 0 0 1 -.644-.702z"/>
    <path style="fill: rgb(245,0,182);" d="m466.417 40.688a4.394 4.394 0 1 0 3.109 1.286 4.384 4.384 0 0 0 -3.109-1.286z"/>
</svg>