<svg id="Capa_1" enable-background="new 0 0 512 512" viewBox="0 0 512 512" height="200px" width="200px"
    xmlns="http://www.w3.org/2000/svg">
    <g>
        <path style="fill: rgb(245,0,182);" d="m453.195 353.005h-69.871c20.148-36.148 30.412-88.388 72.048-114.493 14.361-9.005 10.424-31.02-6.149-34.268-20.396-3.999-42.283-1.232-63.7 7.944 1.488-35.925 4.497-62.417 2.487-79.78-.647-5.597-2.618-22.629-18.603-25.799-6.096-1.207-12.856.86-20.094 6.146-14.27 10.422-30.883 33.971-43.726 62.511-11.535-11.876-24.856-21.788-39.168-29.124v-19.088c18.866-9.486 28.434-24.897 28.434-45.858 0-12.716-3.475-24.888-10.329-36.178-2.149-3.542-6.764-4.668-10.303-2.519-3.541 2.149-4.669 6.762-2.52 10.303 5.409 8.91 8.151 18.463 8.151 28.394 0 19.891-9.565 42.723-84.152 42.723s-84.152-22.832-84.152-42.723c-.001-36.5 37.75-66.196 84.152-66.196 19.297 0 38.159 5.292 53.114 14.901 3.483 2.237 8.125 1.229 10.364-2.255 2.239-3.485 1.229-8.125-2.255-10.364-17.595-11.306-38.766-17.282-61.223-17.282-54.673 0-99.152 36.425-99.152 81.198 0 20.961 9.568 36.371 28.434 45.858v46.547c0 7.071 3.457 13.334 8.753 17.239v27.699c0 6.841-4.648 12.725-11.305 14.306l-30.812 7.321c-31.151 7.401-52.907 34.933-52.907 66.952v137.725c0 30.66 20.713 57.405 50.37 65.039 4.019 1.034 8.103-1.39 9.134-5.394 1.032-4.011-1.383-8.1-5.394-9.133-23.027-5.928-39.11-26.699-39.11-50.513v-137.725c0-25.04 17.014-46.57 41.374-52.358l30.813-7.321c13.446-3.195 22.837-15.08 22.837-28.9v-23.506h93.932v23.506c0 13.821 9.392 25.705 22.838 28.9l30.811 7.321c24.167 5.742 41.375 27.144 41.375 52.358v51.531c-4.616 4.447-6.61 10.473-6.087 16.26l6.211 68.61c-.077.431-.124.872-.124 1.324 0 28.759-23.397 52.156-52.155 52.156h-158.273c-4.143 0-7.5 3.358-7.5 7.5s3.357 7.5 7.5 7.5h158.271c23.234 0 43.745-11.863 55.807-29.848 2.199 17.107 16.573 29.848 33.97 29.848h54.187c17.844 0 32.513-13.401 34.121-31.171 1.175-12.982 8.706-96.182 9.588-105.919 1.06-11.735-8.189-21.905-20.012-21.905zm-201.777-179.403c0 3.546-2.885 6.432-6.432 6.432h-98.574c-3.547 0-6.432-2.885-6.432-6.432v-40.787c14.354 4.138 32.443 6.105 55.719 6.105s41.364-1.967 55.719-6.105zm35.25 63.45-17.698-4.205c-6.656-1.582-11.305-7.464-11.305-14.306v-27.699c5.296-3.906 8.753-10.169 8.753-17.239v-10.333c12.105 7.165 23.275 16.413 32.859 27.252-5.653 14.956-10.108 30.8-12.609 46.53zm42.354 18.075c-7.797-6.756-17.2-11.815-27.724-14.565 7.568-50.097 36.679-100.952 56.861-115.693 4.127-3.014 7.007-3.809 8.329-3.545 1.838.364 5.259 1.043 6.62 12.81 1.95 16.862-1.591 46.301-2.88 85.762-15.462 9.026-29.689 21.181-41.206 35.231zm10.298 11.137c25.111-31.638 67.141-55.111 107.018-47.3 3.28.643 3.925 5.046 1.065 6.839-49.62 31.113-59.102 93.125-81.598 127.202h-13.116v-45.886c0-15.185-4.9-29.356-13.369-40.855zm109.359 213.212c-.904 9.99-9.15 17.524-19.182 17.524h-54.187c-10.031 0-18.277-7.534-19.182-17.524l-.161-1.781h92.872zm1.519-16.781h-95.588l-5.134-56.71c28.775.123 72.776 6.458 105.393 5.108zm8.069-89.138-2.032 22.447c-31.99 1.696-78.002-5.095-108.116-5.016l-1.578-17.431c-.269-2.979 2.074-5.552 5.072-5.552 25.552.001 80.473 0 101.581 0 2.99 0 5.344 2.566 5.073 5.552zm-156.72 62.105v-86.258c0-21.246-11.346-41.048-31.947-55.757-19.837-14.163-46.081-21.963-73.9-21.963s-54.064 7.8-73.9 21.963c-20.602 14.709-31.947 34.511-31.947 55.757v86.258c0 15.952 12.978 28.93 28.93 28.93h153.836c15.951 0 28.928-12.978 28.928-28.93zm-196.695 0v-86.258c0-34.584 40.754-62.72 90.848-62.72s90.848 28.136 90.848 62.72v86.258c0 7.681-6.249 13.93-13.93 13.93h-153.836c-7.681 0-13.93-6.249-13.93-13.93zm128.175-35.07h-74.654c-4.142 0-7.5 3.358-7.5 7.5s3.358 7.5 7.5 7.5h74.654c4.143 0 7.5-3.358 7.5-7.5s-3.358-7.5-7.5-7.5zm-37.327-22.682c15.892 0 28.82-12.929 28.82-28.821s-12.929-28.821-28.82-28.821-28.82 12.929-28.82 28.821 12.928 28.821 28.82 28.821zm0-42.642c7.62 0 13.82 6.2 13.82 13.821s-6.2 13.821-13.82 13.821-13.82-6.2-13.82-13.821 6.2-13.821 13.82-13.821z"/>
    </g>
</svg>